<svg width="1200" height="291" viewBox="0 0 1200 291" fill="none" xmlns="http://www.w3.org/2000/svg">
<path d="M231.236 96.7612L209.685 65.2432H242.784L264.335 96.7612H231.236Z" fill="white"/>
<path d="M297.435 96.7612H264.335L307.438 159.779L264.335 222.815H297.435L340.537 159.779L297.435 96.7612Z" fill="white"/>
<path d="M120.849 159.779L99.2981 128.261H66.1987L87.7501 159.779L66.1987 191.297H99.2981L120.849 159.779Z" fill="white"/>
<path d="M219.302 185.137L240.853 153.619H207.754L186.202 185.137H219.302Z" fill="white"/>
<path d="M268.105 175.538C277.245 175.538 284.655 168.128 284.655 158.988C284.655 149.848 277.245 142.438 268.105 142.438C258.965 142.438 251.555 149.848 251.555 158.988C251.555 168.128 258.965 175.538 268.105 175.538Z" fill="white"/>
<path d="M197.052 96.7612L175.5 65.2432H142.401L163.952 96.7612L120.849 159.779L163.952 222.815H197.052L153.949 159.779L197.052 96.7612Z" fill="white"/>
<path d="M406.736 96.7612H463.134C476.705 96.7612 487.094 100.108 493.622 105.919C500.5 112.079 503.662 119.655 503.662 129.53C503.662 142.402 495.737 150.676 483.931 154.74V155.274C497.852 159.319 507.377 170.959 507.377 186.461C507.377 198.266 503.681 206.375 496.27 212.719C489.043 219.063 477.937 222.76 464.55 222.76H406.755V96.7612H406.736ZM459.953 147.514C471.059 147.514 478.636 142.218 478.636 132.361C478.636 123.02 471.758 117.559 460.486 117.559H432.296V147.514H459.971H459.953ZM432.278 201.613H461.7C474.038 201.613 481.431 194.735 481.431 184.511C481.431 172.522 472.623 166.362 460.983 166.362H432.26V201.613H432.278Z" fill="white"/>
<path d="M578.007 212.719H577.658C573.079 219.597 566.551 224.874 551.05 224.874C532.551 224.874 519.513 215.183 519.513 197.199C519.513 177.285 535.732 170.941 555.812 168.127C570.799 166.012 577.658 164.78 577.658 157.903C577.658 151.026 572.546 147.146 562.506 147.146C551.233 147.146 545.772 151.191 545.055 159.834H523.724C524.423 143.965 536.228 130.044 562.671 130.044C589.114 130.044 600.735 142.199 600.735 163.346V209.336C600.735 216.213 601.802 220.259 603.898 221.84V222.723H580.821C579.405 220.957 578.522 216.728 578.007 212.683V212.719ZM578.191 190.874V177.303C573.962 179.767 567.434 181.183 561.457 182.599C548.953 185.412 542.775 188.244 542.775 196.703C542.775 205.162 548.42 208.159 556.879 208.159C570.633 208.159 578.209 199.7 578.209 190.892L578.191 190.874Z" fill="white"/>
<path d="M615.023 177.652C615.023 150.695 632.64 129.897 660.13 129.897C683.576 129.897 698.011 143.468 701.192 163.034H677.747C676.165 155.108 669.987 149.113 661.179 149.113C646.725 149.113 639.333 160.22 639.333 177.671C639.333 195.122 646.21 206.228 660.829 206.228C670.52 206.228 677.397 201.116 678.979 190.892H702.056C700.475 210.108 685.488 225.426 661.344 225.426C632.787 225.426 615.005 204.628 615.005 177.671L615.023 177.652Z" fill="white"/>
<path d="M773.625 212.719H773.275C768.696 219.597 762.169 224.874 746.667 224.874C728.168 224.874 715.131 215.183 715.131 197.199C715.131 177.285 731.349 170.941 751.43 168.127C766.416 166.012 773.275 164.78 773.275 157.903C773.275 151.026 768.163 147.146 758.123 147.146C746.851 147.146 741.389 151.191 740.672 159.834H719.342C720.04 143.965 731.846 130.044 758.289 130.044C784.731 130.044 796.353 142.199 796.353 163.346V209.336C796.353 216.213 797.419 220.259 799.516 221.84V222.723H776.438C775.022 220.957 774.139 216.728 773.625 212.683V212.719ZM773.808 190.874V177.303C769.579 179.767 763.051 181.183 757.075 182.599C744.571 185.412 738.392 188.244 738.392 196.703C738.392 205.162 744.037 208.159 752.496 208.159C766.251 208.159 773.827 199.7 773.827 190.892L773.808 190.874Z" fill="white"/>
<path d="M815.385 96.7612H839.345V222.76H815.385V96.7612Z" fill="white"/>
<path d="M882.338 144.167H882.871C889.399 134.66 896.791 129.897 909.13 129.897C927.813 129.897 940.317 144.001 940.317 163.732V222.778H916.357V167.263C916.357 157.572 910.711 150.695 900.671 150.695C890.098 150.695 882.338 159.154 882.338 171.492V222.778H858.377V96.7612H882.338V144.167Z" fill="white"/>
<path d="M1012.75 212.719H1012.4C1007.82 219.597 1001.29 224.874 985.792 224.874C967.293 224.874 954.255 215.183 954.255 197.199C954.255 177.285 970.474 170.941 990.554 168.127C1005.54 166.012 1012.4 164.78 1012.4 157.903C1012.4 151.026 1007.29 147.146 997.248 147.146C985.976 147.146 980.514 151.191 979.797 159.834H958.466C959.165 143.965 970.971 130.044 997.413 130.044C1023.86 130.044 1035.48 142.199 1035.48 163.346V209.336C1035.48 216.213 1036.54 220.259 1038.64 221.84V222.723H1015.56C1014.15 220.957 1013.26 216.728 1012.75 212.683V212.719ZM1012.93 190.874V177.303C1008.7 179.767 1002.18 181.183 996.2 182.599C983.695 185.412 977.517 188.244 977.517 196.703C977.517 205.162 983.162 208.159 991.621 208.159C1005.38 208.159 1012.95 199.7 1012.95 190.892L1012.93 190.874Z" fill="white"/>
<path d="M1110.72 222.76V212.186H1110.19C1104.03 220.461 1096.97 225.224 1084.28 225.224C1064.18 225.224 1052.91 212.352 1052.91 192.621V132.343H1076.7V188.557C1076.7 199.13 1081.47 204.941 1091.69 204.941C1102.96 204.941 1109.84 196.482 1109.84 184.493V132.325H1133.8V222.723H1110.72V222.76Z" fill="white"/>
</svg>
