<svg width="214" height="32" viewBox="0 0 214 32" fill="none" xmlns="http://www.w3.org/2000/svg">
<g class="fish">
<path d="M32.9698 6.2964L28.6644 0H35.2768L39.5821 6.2964H32.9698Z" fill="#0055FF"/>
<path d="M46.1944 6.29639H39.582L48.1928 18.8855L39.582 31.4783H46.1944L54.8051 18.8855L46.1944 6.29639Z" fill="#33CCFF"/>
<path d="M10.9177 18.8856L6.61233 12.5892H0L4.30536 18.8856L0 25.182H6.61233L10.9177 18.8856Z" fill="#0055FF"/>
<path d="M30.585 23.9512L34.8903 17.6548H28.278L23.9727 23.9512H30.585Z" fill="#0055FF"/>
<path d="M40.3343 22.0337C42.1602 22.0337 43.6405 20.5534 43.6405 18.7275C43.6405 16.9015 42.1602 15.4213 40.3343 15.4213C38.5084 15.4213 37.0281 16.9015 37.0281 18.7275C37.0281 20.5534 38.5084 22.0337 40.3343 22.0337Z" fill="#0055FF"/>
<path d="M26.141 6.2964L21.8357 0H15.2233L19.5287 6.2964L10.918 18.8855L19.5287 31.4783H26.141L17.5303 18.8855L26.141 6.2964Z" fill="#33CCFF"/>
</g><g class="text">
<path d="M68.0297 6.29639H79.2963C82.0074 6.29639 84.0829 6.96497 85.387 8.1258C86.7609 9.35643 87.3928 10.8699 87.3928 12.8426C87.3928 15.4141 85.8095 17.0671 83.4511 17.879V17.9855C86.2319 18.7937 88.1348 21.119 88.1348 24.2158C88.1348 26.5742 87.3964 28.1942 85.916 29.4616C84.4723 30.7289 82.2535 31.4673 79.5792 31.4673H68.0333V6.29639H68.0297ZM78.6608 16.4353C80.8796 16.4353 82.3931 15.3773 82.3931 13.4083C82.3931 11.5422 81.0192 10.4511 78.7673 10.4511H73.1358V16.4353H78.6645H78.6608ZM73.1322 27.2428H79.0098C81.4747 27.2428 82.9515 25.8689 82.9515 23.8264C82.9515 21.4313 81.1919 20.2006 78.8665 20.2006H73.1285V27.2428H73.1322Z" fill="white"/>
<path d="M102.244 29.4616H102.174C101.26 30.8355 99.9554 31.8898 96.8587 31.8898C93.1631 31.8898 90.5586 29.9539 90.5586 26.3612C90.5586 22.3828 93.7986 21.1154 97.8101 20.5533C100.804 20.1309 102.174 19.8848 102.174 18.5109C102.174 17.137 101.153 16.3619 99.1473 16.3619C96.8954 16.3619 95.8044 17.17 95.6611 18.8966H91.3998C91.5394 15.7263 93.8978 12.9455 99.1803 12.9455C104.463 12.9455 106.785 15.3737 106.785 19.5982V28.7857C106.785 30.1596 106.998 30.9678 107.416 31.2837V31.46H102.806C102.523 31.1074 102.347 30.2624 102.244 29.4543V29.4616ZM102.281 25.0975V22.3864C101.436 22.8787 100.132 23.1615 98.9379 23.4444C96.4399 24.0064 95.2056 24.5722 95.2056 26.262C95.2056 27.9518 96.3334 28.5506 98.0232 28.5506C100.771 28.5506 102.284 26.8608 102.284 25.1012L102.281 25.0975Z" fill="white"/>
<path d="M109.64 22.4562C109.64 17.0708 113.159 12.9161 118.651 12.9161C123.335 12.9161 126.219 15.6271 126.854 19.5358H122.17C121.854 17.9525 120.62 16.7549 118.861 16.7549C115.973 16.7549 114.496 18.9737 114.496 22.4599C114.496 25.946 115.87 28.1648 118.791 28.1648C120.727 28.1648 122.101 27.1436 122.417 25.1011H127.027C126.711 28.94 123.717 32 118.894 32C113.189 32 109.636 27.8452 109.636 22.4599L109.64 22.4562Z" fill="white"/>
<path d="M141.323 29.4616H141.253C140.338 30.8355 139.034 31.8898 135.937 31.8898C132.242 31.8898 129.637 29.9539 129.637 26.3612C129.637 22.3828 132.877 21.1154 136.889 20.5533C139.883 20.1309 141.253 19.8848 141.253 18.5109C141.253 17.137 140.232 16.3619 138.226 16.3619C135.974 16.3619 134.883 17.17 134.74 18.8966H130.479C130.618 15.7263 132.977 12.9455 138.259 12.9455C143.542 12.9455 145.863 15.3737 145.863 19.5982V28.7857C145.863 30.1596 146.076 30.9678 146.495 31.2837V31.46H141.885C141.602 31.1074 141.426 30.2624 141.323 29.4543V29.4616ZM141.36 25.0975V22.3864C140.515 22.8787 139.211 23.1615 138.017 23.4444C135.519 24.0064 134.284 24.5722 134.284 26.262C134.284 27.9518 135.412 28.5506 137.102 28.5506C139.85 28.5506 141.363 26.8608 141.363 25.1012L141.36 25.0975Z" fill="white"/>
<path d="M149.667 6.29639H154.453V31.4673H149.667V6.29639Z" fill="white"/>
<path d="M163.041 15.7667H163.147C164.452 13.8675 165.928 12.9161 168.393 12.9161C172.125 12.9161 174.623 15.7337 174.623 19.6753V31.471H169.837V20.3807C169.837 18.4447 168.709 17.0708 166.703 17.0708C164.591 17.0708 163.041 18.7606 163.041 21.2256V31.471H158.254V6.29639H163.041V15.7667Z" fill="white"/>
<path d="M189.095 29.4616H189.025C188.11 30.8355 186.806 31.8898 183.709 31.8898C180.014 31.8898 177.409 29.9539 177.409 26.3612C177.409 22.3828 180.649 21.1154 184.661 20.5533C187.655 20.1309 189.025 19.8848 189.025 18.5109C189.025 17.137 188.004 16.3619 185.998 16.3619C183.746 16.3619 182.655 17.17 182.512 18.8966H178.25C178.39 15.7263 180.748 12.9455 186.031 12.9455C191.313 12.9455 193.635 15.3737 193.635 19.5982V28.7857C193.635 30.1596 193.848 30.9678 194.267 31.2837V31.46H189.657C189.374 31.1074 189.197 30.2624 189.095 29.4543V29.4616ZM189.131 25.0975V22.3864C188.286 22.8787 186.982 23.1615 185.788 23.4444C183.29 24.0064 182.056 24.5722 182.056 26.262C182.056 27.9518 183.184 28.5506 184.874 28.5506C187.622 28.5506 189.135 26.8608 189.135 25.1012L189.131 25.0975Z" fill="white"/>
<path d="M208.667 31.4673V29.355H208.56C207.33 31.0081 205.919 31.9595 203.384 31.9595C199.369 31.9595 197.117 29.3881 197.117 25.4464V13.4046H201.871V24.6346C201.871 26.7468 202.822 27.9077 204.865 27.9077C207.116 27.9077 208.49 26.2178 208.49 23.8227V13.4009H213.277V31.4599H208.667V31.4673Z" fill="white"/>
</g>
</svg>
