<svg xmlns="http://www.w3.org/2000/svg" viewBox="0 0 305.6 306.1"><path style="fill:#000" d="M165.5 327c-12.7-1.1-11.8 0-18.5-22-4.9-15.7-4.4-15-13.9-19-10.1-4.1-11.2-4-26.3 4-19.4 10.4-20 10.2-39.5-10.4-14.5-15.3-14.3-13.7-4.4-33l8.4-16.2-3.7-9c-4.5-11.2-4.2-11-22.6-16.4-18.5-5.4-18-5-18.9-20.2-1.8-32.5-.8-34.7 19.6-40.9 17.2-5.1 18-5.7 22.3-16.6l3.3-8.2-3.4-6.8-8.3-16c-6.4-12.5-4-17.4 17.6-36.3 12.3-10.7 10.8-10.6 29.2-1 17.6 9.2 16.6 9 29.6 2.7 6.5-3.2 6.5-3.2 11-18 6.9-22 5.4-20.5 21.7-21.6 31-2.2 34.3-.5 40.8 20.4 5.4 17.7 5 17.2 16.2 21.5l8.7 3.4 16-8.2c19.8-10.2 22.2-9.4 43.2 14.7 10 11.5 10 10.2.3 29l-8.3 16 3.3 8.3c4.4 11 5.3 11.6 22.1 16.7 20 6 19.3 5.1 19.8 24.5.9 31 1.3 30.3-19.3 36.7-18.2 5.7-18 5.5-22.5 16.8l-3.4 8.5 8.5 16.2c10 19.4 10.3 17.8-6.1 34.5-19.3 19.6-18.2 19.3-37 9.4-16-8.5-17-8.7-27.1-4.5-9.6 4-8.6 2.5-14.9 21.8-5.5 16.6-5.5 16.7-9 17.8-4.7 1.5-24.6 2.4-34.5 1.4zm27.8-95.6a58.4 58.4 0 0 0 26.3-97.9 57.6 57.6 0 0 0-99 41 57.7 57.7 0 0 0 72.7 57z" transform="translate(-25.5 -21.3)"/></svg>
