<svg xmlns="http://www.w3.org/2000/svg" viewBox="0 0 682.7 682.7"><path style="display:inline;fill:#0a9beb;stroke:none" d="M306.7 126.7v58.6h62.6v-58.6h-62.6M157.3 196v57.3H220V196h-62.7m74.7 0v57.3h62.7V196H232m74.7 0v57.3h62.6V196h-62.6M500 328c-11.8 2.8-22.5 7.5-34.7 9-35.8 4.4-74.5.3-110.6.3h-284c-7.5 0-26.4-3.4-32.4 1.4-3.3 2.7-2.8 10.7-3.3 14.6a171 171 0 0 0 3.2 49.4c12.2 67.2 56.7 123.2 123.1 143 106.7 31.8 244-2 322.6-80.5a301.7 301.7 0 0 0 47.7-62.5c6.9-12 11.5-29.3 20.4-39.6 3.8-4.4 10.8-3 16-3.1a96 96 0 0 0 28-5c26.6-8.7 41.7-30.2 52-55-15.4-8.6-28.4-16.5-46.7-17.3-7.5-.3-29.5 4-35-1-4.1-3.6-5-14-7.3-19-7.1-15.1-25.8-44-44.3-46.5-8.2-1-16.2 19-18.7 25.1a100.7 100.7 0 0 0 4 86.7M82.7 265.3v57.4h62.6v-57.4H82.7m74.6 0v57.4H220v-57.4h-62.7m74.7 0v57.4h62.7v-57.4H232m74.7 0v57.4h62.6v-57.4h-62.6m74.6 0c0 14.1-5.4 41.7.8 54.3 2.2 4.4 9.9 3 13.9 3h34.7c3.7 0 10.6 1.3 13.3-2 2.7-3.6 1.3-11.1 1.3-15.3v-40z"/></svg>
