<svg xmlns="http://www.w3.org/2000/svg" viewBox="0 0 1163 715"><path style="fill:#021c70;stroke:none" d="M557 32.4c-39.4 5.2-78 7.4-117 17C323 78.2 211.6 142.3 131.7 233a641.7 641.7 0 0 0-64.1 84c-6.3 10-17.2 22.6-17.3 35 0 15 14.4 32 22.4 44a638.3 638.3 0 0 0 81.3 99c134.3 134.3 326.5 197.4 514 172.7A613.3 613.3 0 0 0 1102.4 388c6.4-10.2 17-22.4 17.3-35 .5-14-12.8-28.9-20-40a585 585 0 0 0-77.7-97C926.7 120.7 804 56.5 670 37.9c-36-5-76.6-10.3-113-5.5m11 46.9c31.3-3.7 66 1.3 97 5.6A561.7 561.7 0 0 1 981 242c24.3 24.3 46.4 50 66.4 78 5.7 8 19.2 22 20 32 .6 8.3-12 21.5-16.4 28a521 521 0 0 1-60 73c-90.9 90.9-209 155-338 168.8C487.7 639.5 314.6 588 195 469a641.2 641.2 0 0 1-72.6-84c-5.3-7.5-20.5-23.5-19.8-33 .7-9 12.2-20.7 17-28 18-26.6 39.2-50.9 61.4-74A561.8 561.8 0 0 1 453 94.9c38.4-9.1 76.2-11 115-15.6m-2 72.1c-34 4.5-65.3 14.4-94 33.6a201.5 201.5 0 0 0-55 55c-74.7 111.6-17.5 271 113 307.3 27 7.4 55.4 9.1 83 5.4a198.7 198.7 0 0 0 81-30c113-73.6 124.6-242 18-327.3a207.7 207.7 0 0 0-73-37.5 187.6 187.6 0 0 0-73-6.5m5 46.9c18.2-2.2 38.5.3 56 5.3a151 151 0 0 1 51 25.3c85.2 65.5 80 199.7-13 255.9a149.8 149.8 0 0 1-58 21c-48 5.9-96-9-131-43A156.6 156.6 0 0 1 460.2 261a152 152 0 0 1 41.9-39.2 169 169 0 0 1 69-23.5m4 48.1c-40 5.3-73.9 28.3-89.4 66.6-8.2 20.2-16.5 66.7 19.4 62.8 26-2.8 19.4-41 32-57.8a61.8 61.8 0 0 1 35-23.3c11.2-2.7 22.4-.1 30.8-9.7 18.4-21.1-6.3-41.4-27.8-38.6Z"/></svg>
