<svg width="1000" height="658" viewBox="0 0 1000 658" fill="none" xmlns="http://www.w3.org/2000/svg">
<path d="M581.856 190.211L518.553 97.6608H615.768L679.035 190.211H581.856Z" fill="#0055FF"/>
<path d="M776.251 190.211H679.036L805.606 375.275L679.036 560.339H776.251L902.821 375.275L776.251 190.211Z" fill="#33CCFF"/>
<path d="M257.662 375.275L194.395 282.725H97.1794L160.482 375.275L97.1794 467.825H194.395L257.662 375.275Z" fill="#0055FF"/>
<path d="M546.759 449.739L610.062 357.188H512.883L449.58 449.739H546.759Z" fill="#0055FF"/>
<path d="M690.088 421.532C716.924 421.532 738.678 399.778 738.678 372.942C738.678 346.107 716.924 324.353 690.088 324.353C663.253 324.353 641.499 346.107 641.499 372.942C641.499 399.778 663.253 421.532 690.088 421.532Z" fill="#0055FF"/>
<path d="M481.447 190.211L418.144 97.6608H320.965L384.232 190.211L257.662 375.275L384.232 560.339H481.447L354.877 375.275L481.447 190.211Z" fill="#33CCFF"/>
</svg>
