<svg xmlns="http://www.w3.org/2000/svg" viewBox="0 0 710 710"><path style="fill:#fff" d="M57.5 676.2A30.5 30.5 0 0 1 38 655c-.8-3.2-1-41.7-.8-133l.3-128.5 2.7-5A34 34 0 0 1 57.4 373l5.7-2.1 128.7.2 128.7.3 5.6 2.6a32 32 0 0 1 16 16.6c1.9 5.3 1.9 8 1.9 133.8 0 126.1 0 128.5-2 133.8-2.7 7.3-8 13-14.8 16.4l-5.7 2.8-129.5.2c-120.8.2-129.8.1-134.5-1.5Zm336 0A30.5 30.5 0 0 1 374 655c-.8-3.2-1-41.7-.8-133l.3-128.5 2.7-5a34 34 0 0 1 17.2-15.4l5.8-2.1 129.1.2 129.2.3 5 2.5a32.6 32.6 0 0 1 14.6 14.6l2.4 4.9.3 129.7c.2 128 .2 129.7-1.8 135-2.6 7-7.5 12.6-14.1 16.3l-5.4 3-130 .2c-121.3.2-130.3.1-135-1.5zm-336-336A30.5 30.5 0 0 1 38 319c-.8-3.2-1-41.7-.8-133l.3-128.5 2.7-5A34 34 0 0 1 57.4 37l5.7-2.1 128.7.2 128.7.3 5.6 2.6a32 32 0 0 1 16 16.6c1.9 5.3 1.9 8 1.9 133.2 0 142.3.4 133.6-7 143a27.8 27.8 0 0 1-9.7 7.7l-5.8 2.9-129.5.2c-120.8.2-129.8.1-134.5-1.5Zm333.5-2.9c-7.8-3.3-12.2-10.3-12.2-19.5 0-5.8 1-8 56.8-119 76.3-152.4 73.9-147.7 78.3-152 8-7.6 19.8-7.6 28.3 0 3.1 2.8 6 7.8 13 22.2l64.4 130c59 118.6 58.2 117 55.4 125.5a26 26 0 0 1-11.8 13c-5.3 2.3-267 2-272.2-.2Zm227-43.2c0-2.3-88.2-180.5-89.8-181.5-1.3-.8-92.6 181-91.7 182.4.4.6 34.8 1 91 1 88.4 0 90.5 0 90.5-2Z"/></svg>
