<svg xmlns="http://www.w3.org/2000/svg" viewBox="0 0 850 850"><path style="fill:#fff" d="M59.7 816.6c-35.5-17.8-14.6-66.6-20.6-98l.4-185.1c13.3-33.3 54.6-18 81.8-21.5H167v-65c-40.2-.8-80.7 1.8-120.6-1.9-41.7-28 8.1-61.3 40.6-49 103-.2 206 0 309-.1v-65c-36-.8-72.9 1.1-108.4-1.6C252.9 309 274 261 268 228c1-61.3-2.3-123 2-184.3 10.4-26.6 39.8-17.8 61.6-19.3 73 .4 146.5-1.3 219.4.4 20.8 4.8 26.4 25.7 23.5 44v239.7c-12.2 33.1-52.5 19.1-79.2 22.3l-48.3.3V396c115.2.6 230.4-1.5 345.6 1.3 32.5 4.4 19 57.2-11.1 49.7H682v65c35.8.6 72.1-1.2 107.5 1 34.8 18 14.7 65 20.4 96.2l-.4 187.3c-16 35.3-62.2 16.2-92.3 21.4l-192.7-.4c-18-6.3-23.7-25-21-42v-242c13.3-33.3 54.6-18 81.8-21.5H631v-65H218v65c35.8.6 72.1-1.2 107.5 1 34.8 18 14.7 65 20.4 96.2l-.4 187.3c-17 36.1-64.7 16-96 21.5-63.2-.6-126.6 1.2-189.8-1.4z"/></svg>
