<svg xmlns="http://www.w3.org/2000/svg" viewBox="0 0 306.8 307.5"><path style="fill:#0256ff;stroke:none" d="M157 17.4a166.1 166.1 0 0 0-75 27.3A158.9 158.9 0 0 0 42 86a146.5 146.5 0 0 0-20.4 47C-4.5 238.1 86.2 337.1 193 322.7a149.5 149.5 0 0 0 60-22.4A155.6 155.6 0 0 0 305.7 97 158.1 158.1 0 0 0 260 45.6c-14.8-11-32.2-19-50-23.5-16.8-4.2-35.6-7-53-4.7m9 49.9c39.6-4.8 68.8 37.8 56 73.7-7.9 21.6-27.1 33.2-49 35.7-36.5 4.2-63.6-34.2-55.8-67.7A55.5 55.5 0 0 1 166 67.3m-6 119c44.5-5.3 87.8 15.2 103.3 58.7 2.9 8 10.5 25.4 7 33.7-2.4 6.1-12 10.9-17.3 14.2a155 155 0 0 1-63 22.8c-32.3 4-68-1.6-96-18.8-6.9-4.2-19-9.8-23-17-3.9-7.3 3.6-23.7 6-30.9 13.2-39.7 43-58 83-62.7z" transform="translate(-17 -16.6)"/></svg>
