<svg xmlns="http://www.w3.org/2000/svg" width="1500" height="627" viewBox="0 0 1125 470.25"><defs><clipPath id="b"><path d="M221 65h2v391.02h-2Zm0 0"></path></clipPath><clipPath id="e"><path d="M.105 1H1v390.02H.105Zm0 0"></path></clipPath><clipPath id="d"><path d="M0 0h2v392H0z"></path></clipPath><clipPath id="f"><path d="M540 65h2v391.02h-2Zm0 0"></path></clipPath><clipPath id="i"><path d="M1 1h.953v390.02H1Zm0 0"></path></clipPath><clipPath id="h"><path d="M0 0h2v392H0z"></path></clipPath><clipPath id="j"><path d="M860 65h2v391.02h-2Zm0 0"></path></clipPath><clipPath id="m"><path d="M1 1h.844v390.02H1Zm0 0"></path></clipPath><clipPath id="l"><path d="M0 0h2v392H0z"></path></clipPath><clipPath id="n"><path d="M221.7 66.55h802.663v187.165H221.7Zm0 0"></path></clipPath><clipPath id="o"><path d="M221.7 268.89h3.87v187.13h-3.87Zm0 0"></path></clipPath><mask id="c"><g filter="url(#a)"><path fill-opacity=".6" d="M-112.5-47.025h1350v564.3h-1350z"></path></g></mask><mask id="g"><g filter="url(#a)"><path fill-opacity=".25" d="M-112.5-47.025h1350v564.3h-1350z"></path></g></mask><mask id="k"><g filter="url(#a)"><path fill-opacity=".25" d="M-112.5-47.025h1350v564.3h-1350z"></path></g></mask><filter id="a" width="100%" height="100%" x="0%" y="0%"></filter></defs><path fill="#442a6d" d="M216.153 56.835v-1.312c-.71-.008-1.32-.07-1.828-.188a9.14 9.14 0 0 1-1.437-.484v-2.5c.507.23 1.054.414 1.64.547.582.137 1.125.23 1.625.281v-2.015a9.963 9.963 0 0 1-1.812-.704 3.579 3.579 0 0 1-1.266-1.078c-.305-.437-.453-1.004-.453-1.703 0-.656.145-1.203.437-1.64.29-.438.704-.77 1.235-1 .531-.239 1.148-.383 1.86-.438v-1.125h1.5v1.11c.663.03 1.269.12 1.812.265.539.148 1.031.309 1.468.484l-.703 2.188a7.291 7.291 0 0 0-1.265-.422 10.222 10.222 0 0 0-1.313-.219v1.97c.758.23 1.406.476 1.938.733.539.262.953.59 1.234.985.281.398.422.918.422 1.562 0 .875-.293 1.621-.875 2.235-.574.617-1.48.992-2.719 1.125v1.343Zm1.5-3.703c.32-.039.555-.125.703-.25a.59.59 0 0 0 .235-.484.638.638 0 0 0-.094-.36.689.689 0 0 0-.281-.265 2.65 2.65 0 0 0-.563-.234Zm-1.5-4.718v-1.516a1.64 1.64 0 0 0-.5.125.72.72 0 0 0-.297.219.512.512 0 0 0-.109.328c0 .137.031.258.094.36a.975.975 0 0 0 .281.265c.133.074.312.148.531.219ZM230.624 50.07c0 .937-.078 1.777-.234 2.515-.149.73-.387 1.356-.719 1.875a3.206 3.206 0 0 1-1.297 1.172c-.531.27-1.187.407-1.968.407-.97 0-1.766-.235-2.391-.704-.625-.476-1.086-1.16-1.375-2.046-.293-.895-.438-1.97-.438-3.22 0-1.257.13-2.335.391-3.234.27-.894.711-1.582 1.328-2.062.625-.477 1.453-.719 2.485-.719.976 0 1.773.242 2.39.719.613.48 1.07 1.168 1.375 2.062.301.899.453 1.977.453 3.235Zm-5.297 0c0 .762.024 1.402.079 1.922.062.511.171.898.328 1.156.156.25.379.375.672.375a.75.75 0 0 0 .671-.375c.157-.258.258-.645.313-1.156.062-.508.094-1.149.094-1.922 0-.77-.032-1.41-.094-1.922-.055-.52-.156-.91-.313-1.172-.156-.258-.382-.39-.671-.39-.293 0-.516.132-.672.39-.157.262-.266.652-.328 1.172a18.764 18.764 0 0 0-.079 1.922ZM502.12 56.835v-1.312c-.712-.008-1.321-.07-1.829-.188a9.14 9.14 0 0 1-1.437-.484v-2.5c.507.23 1.054.414 1.64.547.582.137 1.125.23 1.625.281v-2.015a9.963 9.963 0 0 1-1.812-.704 3.579 3.579 0 0 1-1.266-1.078c-.305-.437-.453-1.004-.453-1.703 0-.656.145-1.203.437-1.64.29-.438.704-.77 1.235-1 .531-.239 1.148-.383 1.86-.438v-1.125h1.5v1.11c.663.03 1.269.12 1.812.265.539.148 1.031.309 1.468.484l-.703 2.188a7.291 7.291 0 0 0-1.265-.422 10.222 10.222 0 0 0-1.313-.219v1.97c.758.23 1.406.476 1.938.733.539.262.953.59 1.234.985.281.398.422.918.422 1.562 0 .875-.293 1.621-.875 2.235-.574.617-1.48.992-2.719 1.125v1.343Zm1.5-3.703c.32-.039.554-.125.702-.25a.59.59 0 0 0 .235-.484.638.638 0 0 0-.094-.36.689.689 0 0 0-.281-.265 2.65 2.65 0 0 0-.563-.234Zm-1.5-4.718v-1.516a1.64 1.64 0 0 0-.5.125.72.72 0 0 0-.298.219.512.512 0 0 0-.109.328c0 .137.031.258.094.36a.975.975 0 0 0 .281.265c.133.074.312.148.531.219ZM515.106 55.882h-3.203V49.54a48.876 48.876 0 0 1 .047-1.89 4.888 4.888 0 0 1-.734.75l-1.329 1.093-1.625-2 4-3.266h2.844ZM521.127 53.492l.11.187a38.66 38.66 0 0 1-.376 1.406 42.584 42.584 0 0 1-.484 1.641c-.18.55-.36 1.023-.547 1.422h-2.219c.102-.5.207-1.027.313-1.578.101-.555.195-1.094.28-1.625.083-.531.15-1.016.204-1.453ZM531.205 50.07c0 .937-.078 1.777-.234 2.515-.149.73-.387 1.356-.72 1.875a3.206 3.206 0 0 1-1.296 1.172c-.531.27-1.188.407-1.969.407-.969 0-1.765-.235-2.39-.704-.625-.476-1.086-1.16-1.375-2.046-.293-.895-.438-1.97-.438-3.22 0-1.257.129-2.335.39-3.234.27-.894.712-1.582 1.329-2.062.625-.477 1.453-.719 2.484-.719.977 0 1.774.242 2.39.719.614.48 1.071 1.168 1.376 2.062.3.899.453 1.977.453 3.235Zm-5.297 0c0 .762.024 1.402.078 1.922.063.511.172.898.328 1.156.157.25.38.375.672.375a.75.75 0 0 0 .672-.375c.156-.258.258-.645.313-1.156.062-.508.093-1.149.093-1.922 0-.77-.03-1.41-.093-1.922-.055-.52-.157-.91-.313-1.172-.156-.258-.383-.39-.672-.39-.293 0-.515.132-.672.39-.156.262-.265.652-.328 1.172a18.764 18.764 0 0 0-.078 1.922ZM540.773 50.07c0 .937-.078 1.777-.235 2.515-.148.73-.386 1.356-.718 1.875a3.206 3.206 0 0 1-1.297 1.172c-.532.27-1.188.407-1.97.407-.968 0-1.765-.235-2.39-.704-.625-.476-1.086-1.16-1.375-2.046-.293-.895-.437-1.97-.437-3.22 0-1.257.129-2.335.39-3.234.27-.894.711-1.582 1.329-2.062.625-.477 1.453-.719 2.484-.719.976 0 1.773.242 2.39.719.614.48 1.07 1.168 1.376 2.062.3.899.453 1.977.453 3.235Zm-5.297 0c0 .762.023 1.402.078 1.922.062.511.172.898.328 1.156.156.25.379.375.672.375a.75.75 0 0 0 .672-.375c.156-.258.258-.645.312-1.156.063-.508.094-1.149.094-1.922 0-.77-.031-1.41-.094-1.922-.054-.52-.156-.91-.312-1.172-.156-.258-.383-.39-.672-.39-.293 0-.516.132-.672.39-.156.262-.266.652-.328 1.172a18.764 18.764 0 0 0-.078 1.922ZM550.34 50.07c0 .937-.078 1.777-.234 2.515-.148.73-.387 1.356-.719 1.875a3.206 3.206 0 0 1-1.297 1.172c-.53.27-1.187.407-1.968.407-.97 0-1.766-.235-2.391-.704-.625-.476-1.086-1.16-1.375-2.046-.293-.895-.438-1.97-.438-3.22 0-1.257.13-2.335.391-3.234.27-.894.711-1.582 1.328-2.062.625-.477 1.453-.719 2.485-.719.976 0 1.773.242 2.39.719.614.48 1.07 1.168 1.375 2.062.301.899.453 1.977.453 3.235Zm-5.297 0c0 .762.024 1.402.079 1.922.062.511.171.898.328 1.156.156.25.379.375.672.375a.75.75 0 0 0 .671-.375c.157-.258.258-.645.313-1.156.062-.508.094-1.149.094-1.922 0-.77-.032-1.41-.094-1.922-.055-.52-.156-.91-.313-1.172-.156-.258-.382-.39-.671-.39-.293 0-.516.132-.672.39-.157.262-.266.652-.328 1.172a18.764 18.764 0 0 0-.079 1.922ZM554.877 53.492l.11.187a38.66 38.66 0 0 1-.376 1.406 42.584 42.584 0 0 1-.484 1.641c-.18.55-.36 1.023-.547 1.422h-2.219c.102-.5.207-1.027.313-1.578.101-.555.195-1.094.28-1.625.083-.531.15-1.016.204-1.453ZM564.955 50.07c0 .937-.078 1.777-.234 2.515-.149.73-.387 1.356-.72 1.875a3.206 3.206 0 0 1-1.296 1.172c-.531.27-1.187.407-1.969.407-.968 0-1.765-.235-2.39-.704-.625-.476-1.086-1.16-1.375-2.046-.293-.895-.438-1.97-.438-3.22 0-1.257.129-2.335.39-3.234.27-.894.712-1.582 1.329-2.062.625-.477 1.453-.719 2.484-.719.977 0 1.774.242 2.39.719.614.48 1.071 1.168 1.376 2.062.3.899.453 1.977.453 3.235Zm-5.297 0c0 .762.024 1.402.078 1.922.063.511.172.898.328 1.156.157.25.38.375.672.375a.75.75 0 0 0 .672-.375c.156-.258.258-.645.313-1.156.062-.508.093-1.149.093-1.922 0-.77-.03-1.41-.093-1.922-.055-.52-.157-.91-.313-1.172-.156-.258-.383-.39-.672-.39-.293 0-.515.132-.672.39-.156.262-.265.652-.328 1.172a18.764 18.764 0 0 0-.078 1.922ZM574.523 50.07c0 .937-.078 1.777-.235 2.515-.148.73-.386 1.356-.718 1.875a3.206 3.206 0 0 1-1.297 1.172c-.532.27-1.188.407-1.969.407-.969 0-1.766-.235-2.39-.704-.626-.476-1.087-1.16-1.376-2.046-.293-.895-.437-1.97-.437-3.22 0-1.257.129-2.335.39-3.234.27-.894.711-1.582 1.329-2.062.625-.477 1.453-.719 2.484-.719.977 0 1.773.242 2.39.719.614.48 1.07 1.168 1.376 2.062.3.899.453 1.977.453 3.235Zm-5.297 0c0 .762.023 1.402.078 1.922.062.511.172.898.328 1.156.156.25.379.375.672.375a.75.75 0 0 0 .672-.375c.156-.258.258-.645.312-1.156.063-.508.094-1.149.094-1.922 0-.77-.031-1.41-.094-1.922-.054-.52-.156-.91-.312-1.172-.156-.258-.383-.39-.672-.39-.293 0-.516.132-.672.39-.156.262-.266.652-.328 1.172a18.764 18.764 0 0 0-.078 1.922ZM584.09 50.07c0 .937-.078 1.777-.234 2.515-.148.73-.387 1.356-.719 1.875a3.206 3.206 0 0 1-1.297 1.172c-.53.27-1.187.407-1.968.407-.97 0-1.766-.235-2.391-.704-.625-.476-1.086-1.16-1.375-2.046-.293-.895-.437-1.97-.437-3.22 0-1.257.128-2.335.39-3.234.27-.894.711-1.582 1.328-2.062.625-.477 1.453-.719 2.485-.719.976 0 1.773.242 2.39.719.614.48 1.07 1.168 1.375 2.062.301.899.453 1.977.453 3.235Zm-5.296 0c0 .762.023 1.402.078 1.922.062.511.172.898.328 1.156.156.25.379.375.672.375a.75.75 0 0 0 .672-.375c.156-.258.257-.645.312-1.156.063-.508.094-1.149.094-1.922 0-.77-.031-1.41-.094-1.922-.055-.52-.156-.91-.312-1.172-.157-.258-.383-.39-.672-.39-.293 0-.516.132-.672.39-.156.262-.266.652-.328 1.172a18.764 18.764 0 0 0-.078 1.922ZM821.836 56.835v-1.312c-.711-.008-1.32-.07-1.828-.188a9.14 9.14 0 0 1-1.438-.484v-2.5c.508.23 1.055.414 1.64.547.583.137 1.126.23 1.626.281v-2.015a9.963 9.963 0 0 1-1.813-.704 3.579 3.579 0 0 1-1.265-1.078c-.305-.437-.454-1.004-.454-1.703 0-.656.145-1.203.438-1.64.29-.438.703-.77 1.234-1 .532-.239 1.149-.383 1.86-.438v-1.125h1.5v1.11c.664.03 1.27.12 1.812.265.54.148 1.031.309 1.469.484l-.703 2.188a7.291 7.291 0 0 0-1.266-.422 10.222 10.222 0 0 0-1.312-.219v1.97c.758.23 1.406.476 1.937.733.54.262.953.59 1.235.985.28.398.421.918.421 1.562 0 .875-.292 1.621-.875 2.235-.574.617-1.48.992-2.718 1.125v1.343Zm1.5-3.703c.32-.039.554-.125.703-.25a.59.59 0 0 0 .234-.484.638.638 0 0 0-.094-.36.689.689 0 0 0-.28-.265 2.65 2.65 0 0 0-.563-.234Zm-1.5-4.718v-1.516a1.64 1.64 0 0 0-.5.125.72.72 0 0 0-.297.219.512.512 0 0 0-.11.328c0 .137.032.258.094.36a.975.975 0 0 0 .281.265c.133.074.313.148.532.219ZM836.26 55.882h-8.469v-2.078l2.844-2.875a46.353 46.353 0 0 0 1.375-1.469c.332-.375.562-.691.687-.953a1.79 1.79 0 0 0 .204-.828c0-.344-.118-.586-.344-.734a1.311 1.311 0 0 0-.781-.235c-.368 0-.735.106-1.11.313-.375.21-.797.516-1.265.922l-1.735-2.016c.352-.312.723-.61 1.11-.89.394-.29.859-.524 1.39-.704.54-.187 1.195-.28 1.969-.28.789 0 1.476.14 2.062.421.582.273 1.032.652 1.344 1.14.32.481.485 1.024.485 1.626 0 .68-.125 1.28-.375 1.812-.243.531-.61 1.063-1.11 1.594a35.034 35.034 0 0 1-1.844 1.797l-.859.765v.079h4.422ZM840.843 53.492l.11.187a38.66 38.66 0 0 1-.375 1.406 42.584 42.584 0 0 1-.485 1.641c-.18.55-.36 1.023-.547 1.422h-2.218c.101-.5.207-1.027.312-1.578.102-.555.195-1.094.281-1.625.082-.531.149-1.016.204-1.453ZM850.921 50.07c0 .937-.078 1.777-.234 2.515-.148.73-.387 1.356-.719 1.875a3.206 3.206 0 0 1-1.297 1.172c-.53.27-1.187.407-1.968.407-.969 0-1.766-.235-2.39-.704-.626-.476-1.087-1.16-1.376-2.046-.293-.895-.437-1.97-.437-3.22 0-1.257.128-2.335.39-3.234.27-.894.711-1.582 1.328-2.062.625-.477 1.453-.719 2.485-.719.976 0 1.773.242 2.39.719.614.48 1.07 1.168 1.375 2.062.301.899.453 1.977.453 3.235Zm-5.296 0c0 .762.023 1.402.078 1.922.062.511.172.898.328 1.156.156.25.379.375.672.375a.75.75 0 0 0 .672-.375c.156-.258.257-.645.312-1.156.063-.508.094-1.149.094-1.922 0-.77-.031-1.41-.094-1.922-.055-.52-.156-.91-.312-1.172-.157-.258-.383-.39-.672-.39-.293 0-.516.132-.672.39-.156.262-.266.652-.328 1.172a18.764 18.764 0 0 0-.078 1.922ZM860.49 50.07c0 .937-.079 1.777-.235 2.515-.149.73-.387 1.356-.719 1.875a3.206 3.206 0 0 1-1.297 1.172c-.531.27-1.187.407-1.969.407-.968 0-1.765-.235-2.39-.704-.625-.476-1.086-1.16-1.375-2.046-.293-.895-.438-1.97-.438-3.22 0-1.257.13-2.335.39-3.234.27-.894.712-1.582 1.329-2.062.625-.477 1.453-.719 2.484-.719.977 0 1.774.242 2.391.719.613.48 1.07 1.168 1.375 2.062.3.899.453 1.977.453 3.235Zm-5.298 0c0 .762.024 1.402.078 1.922.063.511.172.898.329 1.156.156.25.378.375.671.375a.75.75 0 0 0 .672-.375c.157-.258.258-.645.313-1.156.062-.508.094-1.149.094-1.922 0-.77-.032-1.41-.094-1.922-.055-.52-.156-.91-.313-1.172-.156-.258-.383-.39-.672-.39-.293 0-.515.132-.671.39-.157.262-.266.652-.329 1.172a18.764 18.764 0 0 0-.078 1.922ZM870.057 50.07c0 .937-.078 1.777-.235 2.515-.148.73-.386 1.356-.718 1.875a3.206 3.206 0 0 1-1.297 1.172c-.531.27-1.188.407-1.969.407-.969 0-1.766-.235-2.39-.704-.626-.476-1.086-1.16-1.376-2.046-.292-.895-.437-1.97-.437-3.22 0-1.257.129-2.335.39-3.234.27-.894.712-1.582 1.329-2.062.625-.477 1.453-.719 2.484-.719.977 0 1.774.242 2.39.719.614.48 1.071 1.168 1.376 2.062.3.899.453 1.977.453 3.235Zm-5.297 0c0 .762.023 1.402.078 1.922.063.511.172.898.328 1.156.156.25.38.375.672.375a.75.75 0 0 0 .672-.375c.156-.258.258-.645.312-1.156.063-.508.094-1.149.094-1.922 0-.77-.031-1.41-.094-1.922-.054-.52-.156-.91-.312-1.172-.156-.258-.383-.39-.672-.39-.293 0-.516.132-.672.39-.156.262-.265.652-.328 1.172a18.764 18.764 0 0 0-.078 1.922ZM874.593 53.492l.11.187a38.66 38.66 0 0 1-.375 1.406 42.584 42.584 0 0 1-.485 1.641c-.18.55-.36 1.023-.547 1.422h-2.218c.101-.5.207-1.027.312-1.578.102-.555.196-1.094.281-1.625.082-.531.149-1.016.204-1.453ZM884.672 50.07c0 .937-.079 1.777-.235 2.515-.148.73-.387 1.356-.719 1.875a3.206 3.206 0 0 1-1.296 1.172c-.532.27-1.188.407-1.97.407-.968 0-1.765-.235-2.39-.704-.625-.476-1.086-1.16-1.375-2.046-.293-.895-.437-1.97-.437-3.22 0-1.257.129-2.335.39-3.234.27-.894.711-1.582 1.328-2.062.625-.477 1.454-.719 2.485-.719.976 0 1.773.242 2.39.719.614.48 1.07 1.168 1.375 2.062.301.899.454 1.977.454 3.235Zm-5.297 0c0 .762.023 1.402.078 1.922.062.511.172.898.328 1.156.156.25.379.375.672.375a.75.75 0 0 0 .672-.375c.156-.258.257-.645.312-1.156.063-.508.094-1.149.094-1.922 0-.77-.031-1.41-.094-1.922-.055-.52-.156-.91-.312-1.172-.157-.258-.383-.39-.672-.39-.293 0-.516.132-.672.39-.156.262-.266.652-.328 1.172a18.764 18.764 0 0 0-.078 1.922ZM894.24 50.07c0 .937-.079 1.777-.235 2.515-.149.73-.387 1.356-.719 1.875a3.206 3.206 0 0 1-1.297 1.172c-.531.27-1.187.407-1.969.407-.968 0-1.765-.235-2.39-.704-.625-.476-1.086-1.16-1.375-2.046-.293-.895-.438-1.97-.438-3.22 0-1.257.13-2.335.391-3.234.27-.894.71-1.582 1.328-2.062.625-.477 1.453-.719 2.484-.719.977 0 1.774.242 2.391.719.613.48 1.07 1.168 1.375 2.062.3.899.453 1.977.453 3.235Zm-5.298 0c0 .762.024 1.402.078 1.922.063.511.172.898.329 1.156.156.25.379.375.671.375a.75.75 0 0 0 .672-.375c.157-.258.258-.645.313-1.156.062-.508.094-1.149.094-1.922 0-.77-.032-1.41-.094-1.922-.055-.52-.156-.91-.313-1.172-.156-.258-.382-.39-.672-.39-.292 0-.515.132-.671.39-.157.262-.266.652-.329 1.172a18.764 18.764 0 0 0-.078 1.922ZM903.807 50.07c0 .937-.078 1.777-.234 2.515-.149.73-.387 1.356-.72 1.875a3.206 3.206 0 0 1-1.296 1.172c-.531.27-1.188.407-1.969.407-.969 0-1.765-.235-2.39-.704-.625-.476-1.086-1.16-1.375-2.046-.293-.895-.438-1.97-.438-3.22 0-1.257.129-2.335.39-3.234.27-.894.712-1.582 1.329-2.062.625-.477 1.453-.719 2.484-.719.977 0 1.774.242 2.39.719.614.48 1.071 1.168 1.376 2.062.3.899.453 1.977.453 3.235Zm-5.297 0c0 .762.023 1.402.078 1.922.063.511.172.898.328 1.156.157.25.38.375.672.375a.75.75 0 0 0 .672-.375c.156-.258.258-.645.313-1.156.062-.508.093-1.149.093-1.922 0-.77-.031-1.41-.093-1.922-.055-.52-.157-.91-.313-1.172-.156-.258-.383-.39-.672-.39-.293 0-.515.132-.672.39-.156.262-.265.652-.328 1.172a18.764 18.764 0 0 0-.078 1.922Zm0 0"></path><g clip-path="url(#b)" mask="url(#c)"><g clip-path="url(#d)" transform="translate(221 65)"><g clip-path="url(#e)"><path fill="none" stroke="#442a6d" stroke-width=".249775" d="M.7 1.55v389.505"></path></g></g></g><g clip-path="url(#f)" mask="url(#g)"><g clip-path="url(#h)" transform="translate(540 65)"><g clip-path="url(#i)"><path fill="none" stroke="#442a6d" stroke-width=".249775" d="M1.414 1.55v389.505"></path></g></g></g><g clip-path="url(#j)" mask="url(#k)"><g clip-path="url(#l)" transform="translate(860 65)"><g clip-path="url(#m)"><path fill="none" stroke="#442a6d" stroke-width=".249775" d="M1.133 1.55v389.505"></path></g></g></g><g clip-path="url(#n)"><path fill="#442a6d" d="M221.7 66.55h787.69a14.968 14.968 0 0 1 5.731 1.138c.906.378 1.77.84 2.586 1.386.82.543 1.574 1.164 2.27 1.86a15.04 15.04 0 0 1 1.863 2.27 14.936 14.936 0 0 1 2.234 5.398c.192.964.29 1.937.29 2.921v157.22a14.962 14.962 0 0 1-1.141 5.726c-.375.91-.836 1.773-1.383 2.59a15.04 15.04 0 0 1-4.133 4.132 15.083 15.083 0 0 1-2.586 1.383 14.972 14.972 0 0 1-5.73 1.14H221.699a14.972 14.972 0 0 1-5.73-1.14c-.906-.375-1.77-.84-2.59-1.383a15.009 15.009 0 0 1-4.129-4.132 14.713 14.713 0 0 1-1.383-2.59 14.653 14.653 0 0 1-.851-2.809 14.667 14.667 0 0 1-.29-2.918V81.523c0-.984.094-1.957.29-2.921.191-.965.472-1.903.851-2.809.375-.91.836-1.773 1.383-2.59a15.04 15.04 0 0 1 4.129-4.129 15.285 15.285 0 0 1 2.59-1.386c.91-.376 1.844-.66 2.808-.852a14.968 14.968 0 0 1 2.922-.285Zm0 0"></path></g><path fill="#442a6d" d="M160.318 160.828c0 .636-.164 1.242-.484 1.812-.313.563-.809 1.023-1.485 1.375-.668.344-1.531.516-2.594.516-.53 0-1-.028-1.406-.078a5.937 5.937 0 0 1-1.11-.22 9.063 9.063 0 0 1-1.077-.437V161c.633.313 1.27.555 1.906.72.645.167 1.227.25 1.75.25.312 0 .566-.036.766-.11.207-.07.359-.172.453-.297a.77.77 0 0 0 .14-.453.682.682 0 0 0-.218-.516c-.137-.144-.36-.289-.672-.437-.305-.157-.711-.348-1.219-.578-.43-.208-.82-.415-1.172-.625a3.968 3.968 0 0 1-.89-.72 3.062 3.062 0 0 1-.563-.968c-.137-.363-.203-.797-.203-1.297 0-.75.18-1.379.547-1.89.375-.508.89-.891 1.547-1.141.664-.258 1.43-.39 2.296-.39.758 0 1.442.09 2.047.265.614.168 1.16.36 1.641.578l-.953 2.422c-.5-.219-.996-.395-1.485-.531a5.083 5.083 0 0 0-1.343-.203 2.03 2.03 0 0 0-.672.093.786.786 0 0 0-.375.266.618.618 0 0 0-.125.375c0 .187.066.355.203.5.145.137.383.293.719.469.332.168.785.382 1.36.64.57.262 1.054.54 1.452.828.395.293.696.649.906 1.063.208.406.313.914.313 1.516ZM167.46 155.187c1 0 1.782.402 2.345 1.203.57.793.859 1.945.859 3.453 0 1.024-.148 1.883-.437 2.578-.282.7-.672 1.227-1.172 1.578a2.807 2.807 0 0 1-1.688.532c-.43 0-.793-.055-1.094-.157a2.46 2.46 0 0 1-.734-.39 3.849 3.849 0 0 1-.484-.5h-.094c.031.21.05.433.062.672.02.238.032.52.032.843v3.297h-3.11v-12.953h2.532l.437 1.14h.14c.157-.226.337-.44.548-.64.218-.195.476-.351.78-.469.302-.125.66-.187 1.079-.187Zm-1.171 2.437c-.305 0-.543.075-.719.22-.18.148-.308.366-.39.655-.075.282-.118.641-.125 1.079v.25c0 .48.035.882.109 1.203.082.324.211.57.39.734.176.168.426.25.75.25.258 0 .477-.07.657-.219.176-.144.305-.379.39-.703.094-.32.141-.75.141-1.281 0-.79-.105-1.352-.312-1.688a.975.975 0 0 0-.891-.5ZM175.555 164.374h-3.11v-12.406h3.11ZM186.505 155.343v9.031h-2.343l-.391-1.125h-.188c-.187.305-.43.547-.718.735a2.884 2.884 0 0 1-.938.406 4.08 4.08 0 0 1-1.078.14 3.667 3.667 0 0 1-1.594-.343 2.55 2.55 0 0 1-1.14-1.078c-.274-.489-.407-1.117-.407-1.89v-5.876h3.11v4.938c0 .586.082 1.03.25 1.343.176.305.453.454.828.454.394 0 .695-.102.906-.313.219-.219.367-.535.453-.953.094-.414.14-.922.14-1.516v-3.953ZM194.32 155.187c.925 0 1.679.266 2.265.797.594.523.89 1.36.89 2.515v5.875h-3.109v-4.921c0-.602-.09-1.055-.265-1.36-.168-.312-.446-.469-.829-.469-.593 0-.996.246-1.203.735-.199.48-.297 1.168-.297 2.062v3.953h-3.109v-9.03h2.344l.422 1.187h.125c.187-.282.414-.52.687-.72.27-.206.578-.362.922-.468a4.059 4.059 0 0 1 1.156-.156ZM202.727 151.968v4.875c0 .375-.015.79-.047 1.235-.023.449-.062.855-.125 1.218h.063l.469-.703c.187-.281.351-.515.5-.703l2.03-2.547h3.47l-3.125 3.844 3.328 5.187h-3.563l-1.984-3.234-1.016.766v2.468h-3.125v-12.406ZM1036.484 166.826v-1.312c-.711-.008-1.32-.07-1.828-.188a9.14 9.14 0 0 1-1.438-.484v-2.5c.508.23 1.055.414 1.64.547.583.136 1.126.23 1.626.28v-2.015a9.963 9.963 0 0 1-1.813-.703 3.579 3.579 0 0 1-1.265-1.078c-.305-.437-.453-1.004-.453-1.703 0-.656.144-1.203.437-1.64.29-.438.703-.77 1.235-1 .53-.239 1.148-.384 1.859-.438v-1.125h1.5v1.11c.664.03 1.27.12 1.812.265.54.148 1.032.308 1.47.484l-.704 2.188a7.291 7.291 0 0 0-1.266-.422 10.222 10.222 0 0 0-1.312-.219v1.969c.758.23 1.406.476 1.937.734.54.262.954.59 1.235.985.281.398.422.917.422 1.562 0 .875-.293 1.621-.875 2.234-.575.618-1.48.993-2.72 1.125v1.344Zm1.5-3.703c.32-.039.555-.125.703-.25a.59.59 0 0 0 .234-.484.638.638 0 0 0-.093-.36.689.689 0 0 0-.282-.265 2.65 2.65 0 0 0-.562-.235Zm-1.5-4.719v-1.515a1.64 1.64 0 0 0-.5.125.72.72 0 0 0-.297.218.512.512 0 0 0-.11.329c0 .136.032.257.094.359a.975.975 0 0 0 .282.266c.132.074.312.148.53.218ZM1050.908 165.873h-8.469v-2.078l2.844-2.875a46.353 46.353 0 0 0 1.375-1.469c.332-.375.563-.691.688-.953a1.79 1.79 0 0 0 .203-.828c0-.344-.117-.586-.344-.734a1.311 1.311 0 0 0-.781-.235c-.367 0-.735.106-1.11.313-.375.21-.797.515-1.265.922l-1.735-2.016c.352-.313.723-.61 1.11-.89.394-.29.86-.524 1.39-.704.54-.187 1.196-.281 1.97-.281.788 0 1.476.14 2.062.422.582.273 1.03.652 1.343 1.14.32.48.485 1.024.485 1.625 0 .68-.125 1.282-.375 1.813-.242.531-.61 1.062-1.11 1.594a35.034 35.034 0 0 1-1.843 1.797l-.86.765v.078h4.422ZM1055.491 163.482l.11.188a38.66 38.66 0 0 1-.375 1.406 42.584 42.584 0 0 1-.485 1.64c-.18.552-.359 1.024-.546 1.423h-2.22c.102-.5.208-1.028.313-1.578.102-.555.196-1.094.282-1.625.082-.532.148-1.016.203-1.454ZM1061.867 158.232a3.64 3.64 0 0 1 1.765.438c.531.293.953.719 1.266 1.281.32.555.484 1.235.484 2.047 0 .867-.18 1.602-.531 2.203-.344.606-.867 1.063-1.563 1.375-.699.3-1.578.453-2.64.453-.68 0-1.293-.054-1.844-.156a5.804 5.804 0 0 1-1.484-.469v-2.578c.406.18.894.344 1.468.5a6.193 6.193 0 0 0 1.594.235c.395 0 .727-.055 1-.172.27-.114.473-.282.61-.5.144-.22.218-.485.218-.797 0-.446-.164-.797-.484-1.047-.313-.25-.797-.375-1.453-.375a3.94 3.94 0 0 0-.86.094 5.696 5.696 0 0 0-.734.187l-1.156-.578.437-6.156h6.64v2.625h-3.968l-.14 1.531c.164-.031.335-.062.515-.094.188-.031.473-.047.86-.047ZM1073.653 165.873h-3.203v-6.344a48.876 48.876 0 0 1 .047-1.89 4.888 4.888 0 0 1-.734.75l-1.329 1.093-1.625-2 4-3.265h2.844ZM1084.705 160.06c0 .938-.078 1.778-.234 2.516-.149.73-.387 1.356-.72 1.875a3.206 3.206 0 0 1-1.296 1.172c-.531.27-1.187.406-1.969.406-.968 0-1.765-.234-2.39-.703-.625-.476-1.086-1.16-1.375-2.047-.293-.894-.438-1.968-.438-3.218 0-1.258.13-2.336.39-3.235.27-.894.712-1.582 1.329-2.062.625-.477 1.453-.72 2.484-.72.977 0 1.774.243 2.39.72.614.48 1.071 1.168 1.376 2.062.3.899.453 1.977.453 3.235Zm-5.297 0c0 .762.024 1.403.078 1.922.063.512.172.899.328 1.157.157.25.38.375.672.375a.75.75 0 0 0 .672-.375c.156-.258.258-.645.313-1.157.062-.507.093-1.148.093-1.921 0-.77-.03-1.41-.093-1.922-.055-.52-.157-.91-.313-1.172-.156-.258-.383-.39-.672-.39-.293 0-.515.132-.672.39-.156.261-.265.652-.328 1.172a18.764 18.764 0 0 0-.078 1.922ZM1089.241 163.482l.11.188a38.66 38.66 0 0 1-.375 1.406 42.584 42.584 0 0 1-.485 1.64c-.18.552-.359 1.024-.546 1.423h-2.22c.102-.5.208-1.028.313-1.578.102-.555.196-1.094.282-1.625.082-.532.148-1.016.203-1.454ZM1095.617 158.232a3.64 3.64 0 0 1 1.765.438c.531.293.953.719 1.266 1.281.32.555.484 1.235.484 2.047 0 .867-.18 1.602-.531 2.203-.344.606-.867 1.063-1.563 1.375-.699.3-1.578.453-2.64.453-.68 0-1.293-.054-1.844-.156a5.804 5.804 0 0 1-1.484-.469v-2.578c.406.18.894.344 1.468.5a6.193 6.193 0 0 0 1.594.235c.395 0 .727-.055 1-.172.27-.114.473-.282.61-.5.144-.22.218-.485.218-.797 0-.446-.164-.797-.484-1.047-.313-.25-.797-.375-1.453-.375a3.94 3.94 0 0 0-.86.094 5.696 5.696 0 0 0-.734.187l-1.156-.578.437-6.156h6.64v2.625h-3.968l-.14 1.531c.164-.031.336-.062.515-.094.188-.031.473-.047.86-.047ZM1109.2 163.623h-1.281v2.25h-3.11v-2.25h-4.64v-2.312l4.843-7.094h2.907v7.047h1.28Zm-4.39-2.36v-1.812c.007-.187.019-.375.03-.562.008-.188.016-.344.016-.47.008-.132.02-.206.031-.218h-.093a3.887 3.887 0 0 1-.282.594c-.086.156-.195.34-.328.547l-1.297 1.922ZM1114.268 154.045c.77 0 1.445.105 2.03.312.583.211 1.036.528 1.36.954.332.417.5.945.5 1.578 0 .468-.09.882-.265 1.234a2.93 2.93 0 0 1-.704.938 4.835 4.835 0 0 1-1.03.671c.362.211.722.454 1.077.735.364.273.664.594.907.969.238.375.359.824.359 1.343 0 .617-.152 1.172-.453 1.672-.305.492-.766.875-1.39 1.156-.626.282-1.434.422-2.423.422-.98 0-1.789-.136-2.422-.406-.625-.27-1.085-.645-1.375-1.125-.293-.488-.437-1.05-.437-1.687 0-.54.086-1 .266-1.375.187-.375.437-.692.75-.954.32-.257.687-.492 1.093-.703a5.784 5.784 0 0 1-.89-.734 3.196 3.196 0 0 1-.64-.953 2.975 2.975 0 0 1-.235-1.219c0-.625.164-1.145.5-1.562.332-.415.797-.727 1.39-.938.594-.219 1.27-.328 2.032-.328Zm-1.391 8.625c0 .336.113.601.344.797.238.199.566.297.984.297.488 0 .844-.086 1.063-.266.226-.187.343-.441.343-.766 0-.226-.074-.441-.218-.64a2.106 2.106 0 0 0-.485-.5 7.22 7.22 0 0 0-.484-.344l-.219-.125c-.242.125-.46.266-.656.422-.2.148-.36.312-.485.5a1.108 1.108 0 0 0-.187.625Zm1.375-6.344a1.07 1.07 0 0 0-.688.235.735.735 0 0 0-.28.609c0 .168.038.324.124.469.082.148.192.28.328.406.145.125.305.234.485.328a3.95 3.95 0 0 0 .453-.281 1.42 1.42 0 0 0 .375-.39.9.9 0 0 0 .156-.532.735.735 0 0 0-.281-.61 1.02 1.02 0 0 0-.672-.234Zm0 0"></path><g clip-path="url(#o)"><path fill="#442a6d" d="M221.7 268.89c.51 0 1.007.098 1.48.294.476.195.894.476 1.257.84.36.363.641.78.836 1.253.2.473.297.97.297 1.48v179.427c0 .511-.097 1.007-.297 1.48-.195.473-.476.89-.835 1.254a3.802 3.802 0 0 1-1.258.84 3.853 3.853 0 0 1-4.22-.84 3.876 3.876 0 0 1-.835-1.254 3.782 3.782 0 0 1-.297-1.48V272.758c0-.512.098-1.008.297-1.48a3.842 3.842 0 0 1 2.094-2.094 3.849 3.849 0 0 1 1.48-.293Zm0 0"></path></g><path fill="#442a6d" d="M5.25 355.307h4.062c1.687 0 2.883.25 3.593.75.72.5 1.079 1.219 1.079 2.156 0 .512-.094.946-.282 1.297-.18.356-.406.637-.687.844-.274.21-.555.351-.844.422v.078c.313.086.625.219.938.406.32.18.586.45.796.813.207.367.313.859.313 1.484 0 .7-.184 1.305-.547 1.812-.355.512-.867.907-1.531 1.188-.656.273-1.445.406-2.36.406H5.25Zm3.14 4.469h.953c.52 0 .883-.102 1.094-.313.218-.219.328-.484.328-.797a.813.813 0 0 0-.375-.718c-.242-.164-.61-.25-1.11-.25h-.89Zm0 2.312v2.438H9.5c.55 0 .929-.114 1.14-.344.219-.238.328-.535.328-.89 0-.208-.047-.4-.14-.579-.087-.187-.243-.336-.47-.453-.218-.113-.527-.172-.921-.172ZM20.47 357.776c1.145 0 2.036.281 2.673.843.644.563.968 1.372.968 2.422v5.922h-2.156l-.594-1.203H21.3a4.262 4.262 0 0 1-.797.781c-.262.2-.57.344-.922.438-.344.094-.765.14-1.265.14-.524 0-.993-.105-1.407-.312a2.385 2.385 0 0 1-.968-.969c-.243-.426-.36-.972-.36-1.64 0-.957.332-1.672 1-2.141.664-.469 1.633-.734 2.906-.797l1.516-.047v-.125c0-.406-.105-.691-.312-.86-.2-.163-.465-.25-.797-.25-.356 0-.75.063-1.188.188a8.812 8.812 0 0 0-1.312.47l-.907-2.048c.52-.27 1.11-.472 1.766-.61a11.21 11.21 0 0 1 2.219-.202Zm.548 5.156-.72.031c-.573.024-.98.121-1.218.297-.23.18-.344.434-.344.766 0 .304.082.527.25.672.164.148.383.218.657.218.375 0 .695-.117.968-.359.27-.238.407-.547.407-.922ZM30.348 367.12c-.918 0-1.715-.16-2.391-.485a3.567 3.567 0 0 1-1.563-1.516c-.367-.687-.546-1.562-.546-2.625 0-1.093.203-1.988.609-2.687a3.735 3.735 0 0 1 1.703-1.531c.719-.332 1.531-.5 2.438-.5.55 0 1.07.062 1.562.187.5.117.961.281 1.39.5l-.906 2.297a8.886 8.886 0 0 0-1.046-.39 3.323 3.323 0 0 0-1-.157c-.313 0-.59.086-.829.25-.242.168-.43.418-.562.75-.137.336-.203.758-.203 1.266 0 .523.066.945.203 1.265.133.313.32.543.562.688.25.148.532.219.844.219.446 0 .895-.07 1.344-.219a5.547 5.547 0 0 0 1.281-.594v2.485a4.62 4.62 0 0 1-1.25.593 6.037 6.037 0 0 1-1.64.203ZM39.447 357.776c1.144 0 2.035.281 2.672.843.644.563.968 1.372.968 2.422v5.922h-2.156l-.594-1.203h-.062a4.262 4.262 0 0 1-.797.781c-.262.2-.57.344-.922.438-.344.094-.766.14-1.266.14-.523 0-.992-.105-1.406-.312a2.385 2.385 0 0 1-.969-.969c-.242-.426-.359-.972-.359-1.64 0-.957.332-1.672 1-2.141.664-.469 1.633-.734 2.906-.797l1.516-.047v-.125c0-.406-.105-.691-.313-.86-.199-.163-.464-.25-.796-.25-.356 0-.75.063-1.188.188a8.812 8.812 0 0 0-1.312.47l-.907-2.048c.52-.27 1.11-.472 1.766-.61a11.21 11.21 0 0 1 2.219-.202Zm.547 5.156-.72.031c-.573.024-.98.121-1.218.297-.23.18-.344.434-.344.766 0 .304.082.527.25.672.164.148.383.218.657.218.375 0 .695-.117.968-.359.27-.238.407-.547.407-.922ZM48.324 366.963h-3.11v-12.406h3.11ZM53.602 354.557v1.766c0 .668-.016 1.23-.047 1.687-.024.45-.047.793-.078 1.031h.14c.196-.312.422-.562.672-.75.25-.187.524-.316.828-.39.301-.082.633-.125 1-.125.594 0 1.13.117 1.61.343.476.23.86.59 1.14 1.079.29.48.438 1.109.438 1.89v5.875H56.18v-4.922c0-.601-.09-1.054-.266-1.359a.877.877 0 0 0-.812-.469c-.375 0-.672.11-.89.328-.22.22-.376.54-.47.953-.093.407-.14.907-.14 1.5v3.97h-3.11v-12.407ZM65.838 357.776c1.144 0 2.035.281 2.672.843.644.563.968 1.372.968 2.422v5.922h-2.156l-.594-1.203h-.062a4.262 4.262 0 0 1-.797.781c-.262.2-.57.344-.922.438-.344.094-.766.14-1.266.14-.523 0-.992-.105-1.406-.312a2.385 2.385 0 0 1-.969-.969c-.242-.426-.359-.972-.359-1.64 0-.957.332-1.672 1-2.141.664-.469 1.633-.734 2.906-.797l1.516-.047v-.125c0-.406-.106-.691-.313-.86-.199-.163-.464-.25-.796-.25-.356 0-.75.063-1.188.188a8.812 8.812 0 0 0-1.312.47l-.907-2.048c.52-.27 1.11-.472 1.766-.61a11.21 11.21 0 0 1 2.219-.202Zm.547 5.156-.72.031c-.573.024-.98.121-1.218.297-.23.18-.344.434-.344.766 0 .304.082.527.25.672.164.148.383.218.657.218.375 0 .695-.117.968-.359.27-.238.407-.547.407-.922ZM80.386 357.932v9.031h-2.343l-.391-1.125h-.188c-.187.305-.43.547-.718.735a2.884 2.884 0 0 1-.938.406 4.08 4.08 0 0 1-1.078.14 3.667 3.667 0 0 1-1.594-.343 2.55 2.55 0 0 1-1.14-1.078c-.274-.489-.407-1.118-.407-1.891v-5.875h3.11v4.937c0 .586.082 1.032.25 1.344.176.305.453.453.828.453.394 0 .695-.101.906-.312.219-.219.367-.535.453-.953.094-.414.14-.922.14-1.516v-3.953ZM91.005 355.307c1.476 0 2.582.324 3.312.969.738.636 1.11 1.547 1.11 2.734a5 5 0 0 1-.235 1.531 3.41 3.41 0 0 1-.734 1.313c-.344.387-.805.695-1.375.922-.563.218-1.258.328-2.078.328h-.891v3.86h-3.14v-11.657Zm-.079 2.547h-.812v2.672h.625c.27 0 .52-.047.75-.14.238-.095.426-.243.562-.454.145-.207.22-.488.22-.844 0-.363-.11-.66-.329-.89-.219-.227-.559-.344-1.016-.344ZM102.556 357.776a5.207 5.207 0 0 1 .953.093l-.281 2.938c-.106-.02-.242-.04-.406-.063a5.544 5.544 0 0 0-.657-.03c-.199 0-.414.023-.64.062-.219.031-.43.11-.625.234-.2.117-.367.293-.5.531-.125.243-.188.57-.188.985v4.437h-3.109v-9.031h2.312l.485 1.437h.156c.164-.289.379-.554.64-.796.259-.25.548-.442.86-.579.32-.144.656-.218 1-.218ZM108.828 357.776c.875 0 1.628.152 2.265.453.645.305 1.14.762 1.485 1.375.343.617.515 1.383.515 2.297v1.39h-5.578c.031.47.207.856.531 1.157.332.304.817.453 1.453.453.563 0 1.079-.051 1.547-.157.47-.113.953-.289 1.453-.53v2.25c-.43.23-.902.398-1.421.5-.512.1-1.164.155-1.954.155-.906 0-1.718-.16-2.437-.484a3.733 3.733 0 0 1-1.703-1.5c-.406-.687-.61-1.562-.61-2.625 0-1.082.18-1.973.547-2.672.375-.707.895-1.226 1.563-1.562.676-.332 1.457-.5 2.344-.5Zm.109 2.11c-.367 0-.672.12-.922.358-.242.23-.383.59-.422 1.079h2.672c-.012-.258-.07-.5-.172-.72a1.13 1.13 0 0 0-.437-.515c-.188-.133-.43-.203-.719-.203ZM114.125 363.823v-2.485h4.5v2.485ZM124.268 355.307c1.477 0 2.582.324 3.313.969.738.636 1.11 1.547 1.11 2.734a5 5 0 0 1-.235 1.531 3.41 3.41 0 0 1-.735 1.313c-.343.387-.804.695-1.375.922-.562.218-1.257.328-2.078.328h-.89v3.86h-3.141v-11.657Zm-.078 2.547h-.812v2.672h.625c.27 0 .52-.047.75-.14.238-.095.425-.243.562-.454.145-.207.219-.488.219-.844 0-.363-.11-.66-.328-.89-.219-.227-.559-.344-1.016-.344ZM135.82 357.776a5.207 5.207 0 0 1 .953.093l-.281 2.938c-.106-.02-.243-.04-.407-.063a5.544 5.544 0 0 0-.656-.03c-.2 0-.414.023-.64.062-.22.031-.43.11-.625.234-.2.117-.368.293-.5.531-.125.243-.188.57-.188.985v4.437h-3.11v-9.031h2.313l.485 1.437h.156c.164-.289.379-.554.64-.796.258-.25.547-.442.86-.579.32-.144.656-.218 1-.218ZM146.654 362.432c0 .75-.106 1.418-.313 2a4.072 4.072 0 0 1-.906 1.484c-.387.399-.86.7-1.422.907-.555.195-1.183.296-1.89.296a5.254 5.254 0 0 1-1.797-.296 4.078 4.078 0 0 1-1.422-.907 4.083 4.083 0 0 1-.938-1.484c-.218-.582-.328-1.25-.328-2 0-1 .18-1.844.547-2.531a3.63 3.63 0 0 1 1.563-1.578c.675-.364 1.484-.547 2.421-.547.864 0 1.633.183 2.313.547a3.852 3.852 0 0 1 1.594 1.578c.382.687.578 1.531.578 2.531Zm-5.86 0c0 .512.047.945.141 1.297.094.355.238.625.438.812.195.18.457.266.78.266.321 0 .579-.086.766-.266.196-.187.336-.457.422-.812.094-.352.14-.785.14-1.297 0-.52-.046-.953-.14-1.297-.086-.344-.226-.601-.422-.781-.187-.176-.449-.266-.78-.266-.47 0-.813.2-1.032.594-.211.398-.313.98-.313 1.75ZM152.543 367.12c-.918 0-1.715-.16-2.39-.485a3.567 3.567 0 0 1-1.563-1.516c-.367-.687-.547-1.562-.547-2.625 0-1.093.203-1.988.61-2.687a3.735 3.735 0 0 1 1.703-1.531c.718-.332 1.53-.5 2.437-.5.55 0 1.07.062 1.563.187.5.117.96.281 1.39.5l-.906 2.297a8.886 8.886 0 0 0-1.047-.39 3.323 3.323 0 0 0-1-.157c-.312 0-.59.086-.828.25-.242.168-.43.418-.563.75-.136.336-.203.758-.203 1.266 0 .523.067.945.203 1.265.133.313.32.543.563.688.25.148.531.219.844.219.445 0 .894-.07 1.343-.219a5.547 5.547 0 0 0 1.282-.594v2.485a4.62 4.62 0 0 1-1.25.593 6.037 6.037 0 0 1-1.641.203ZM161.298 357.776c.875 0 1.63.152 2.266.453.645.305 1.14.762 1.484 1.375.344.617.516 1.383.516 2.297v1.39h-5.578c.031.47.207.856.531 1.157.332.304.817.453 1.453.453.563 0 1.078-.051 1.547-.157.469-.113.953-.289 1.453-.53v2.25c-.43.23-.902.398-1.422.5-.511.1-1.164.155-1.953.155-.906 0-1.718-.16-2.437-.484a3.733 3.733 0 0 1-1.703-1.5c-.407-.687-.61-1.562-.61-2.625 0-1.082.18-1.973.547-2.672.375-.707.895-1.226 1.563-1.562.675-.332 1.457-.5 2.343-.5Zm.11 2.11c-.367 0-.672.12-.922.358-.242.23-.383.59-.422 1.079h2.672c-.012-.258-.07-.5-.172-.72a1.13 1.13 0 0 0-.437-.515c-.188-.133-.43-.203-.72-.203ZM174.049 364.182c0 .586-.133 1.094-.391 1.531-.25.438-.656.781-1.219 1.031-.562.25-1.304.375-2.219.375-.648 0-1.226-.039-1.734-.109a6.541 6.541 0 0 1-1.531-.39v-2.5c.562.261 1.14.449 1.734.562.594.117 1.055.172 1.39.172.352 0 .61-.035.766-.11.165-.082.25-.195.25-.343a.436.436 0 0 0-.171-.344c-.106-.094-.297-.195-.579-.313-.273-.125-.664-.289-1.171-.5-.5-.207-.918-.43-1.25-.671-.325-.25-.57-.54-.735-.875-.168-.344-.25-.766-.25-1.266 0-.883.336-1.547 1.016-1.984.687-.446 1.586-.672 2.703-.672.594 0 1.148.07 1.672.203a9.287 9.287 0 0 1 1.64.562l-.843 2c-.45-.195-.903-.359-1.36-.484-.46-.125-.824-.188-1.093-.188-.243 0-.43.04-.563.11-.137.062-.203.152-.203.265a.38.38 0 0 0 .14.297c.094.086.27.184.532.297.258.117.64.274 1.14.469.532.219.961.45 1.297.687.344.243.598.532.766.875.176.344.266.782.266 1.313ZM182.492 364.182c0 .586-.133 1.094-.39 1.531-.25.438-.657.781-1.22 1.031-.562.25-1.304.375-2.218.375-.648 0-1.227-.039-1.734-.109a6.541 6.541 0 0 1-1.532-.39v-2.5c.563.261 1.141.449 1.735.562.593.117 1.054.172 1.39.172.352 0 .61-.035.766-.11.164-.082.25-.195.25-.343a.436.436 0 0 0-.172-.344c-.105-.094-.297-.195-.578-.313-.273-.125-.664-.289-1.172-.5-.5-.207-.918-.43-1.25-.671-.324-.25-.57-.54-.734-.875-.168-.344-.25-.766-.25-1.266 0-.883.336-1.547 1.015-1.984.688-.446 1.586-.672 2.703-.672.594 0 1.149.07 1.672.203a9.287 9.287 0 0 1 1.641.562l-.844 2c-.449-.195-.902-.359-1.36-.484-.46-.125-.823-.188-1.093-.188-.242 0-.43.04-.562.11-.137.062-.204.152-.204.265a.38.38 0 0 0 .141.297c.094.086.27.184.531.297.258.117.641.274 1.141.469.531.219.96.45 1.297.687.344.243.598.532.765.875.176.344.266.782.266 1.313ZM187.342 357.932v9.031h-3.11v-9.031Zm-1.547-3.64c.445 0 .836.093 1.172.28.332.188.5.56.5 1.11 0 .543-.168.906-.5 1.094-.336.187-.727.281-1.172.281-.45 0-.836-.094-1.156-.281-.324-.188-.485-.551-.485-1.094 0-.55.16-.922.485-1.11.32-.187.707-.28 1.156-.28ZM195.183 357.776c.926 0 1.68.265 2.266.797.594.523.89 1.359.89 2.515v5.875h-3.109v-4.922c0-.601-.09-1.054-.266-1.359-.168-.313-.445-.469-.828-.469-.593 0-.996.246-1.203.735-.199.48-.297 1.168-.297 2.062v3.953h-3.11v-9.031h2.345l.422 1.187h.125c.187-.28.414-.52.687-.718.27-.207.578-.364.922-.469a4.059 4.059 0 0 1 1.156-.156ZM203.544 370.885c-1.281 0-2.273-.215-2.969-.64-.687-.43-1.03-1.043-1.03-1.844 0-.543.163-.992.5-1.344.331-.344.835-.594 1.515-.75a1.78 1.78 0 0 1-.735-.563c-.199-.257-.297-.52-.297-.78 0-.282.079-.524.235-.735.156-.219.476-.477.969-.781a2.333 2.333 0 0 1-1.11-.954c-.273-.445-.406-.988-.406-1.625 0-.656.148-1.21.453-1.671.3-.457.738-.805 1.313-1.047.57-.25 1.273-.375 2.109-.375.113 0 .285.011.516.031.226.012.457.031.687.062.238.024.422.043.547.063h3.14v1.5l-1.234.453c.082.156.145.328.188.516.05.18.078.367.078.562 0 .98-.344 1.742-1.031 2.281-.688.532-1.711.797-3.063.797-.336 0-.601-.02-.797-.062a1.151 1.151 0 0 0-.078.203.525.525 0 0 0-.031.187c0 .118.07.211.219.282.144.074.32.125.53.156.22.023.423.031.61.031h1.5c1.008 0 1.766.215 2.266.64.508.43.765 1.071.765 1.923 0 1.101-.468 1.957-1.406 2.562-.937.614-2.258.922-3.953.922Zm.156-1.937c.375 0 .754-.04 1.141-.11.383-.062.707-.172.969-.328.258-.148.39-.34.39-.578a.46.46 0 0 0-.234-.422 1.558 1.558 0 0 0-.61-.187 5.97 5.97 0 0 0-.765-.047h-1.203c-.23 0-.438.035-.625.11-.18.07-.32.163-.422.28a.635.635 0 0 0-.156.422c0 .25.133.453.406.61.281.164.648.25 1.11.25Zm.422-6.672c.301 0 .531-.114.688-.344.164-.227.25-.57.25-1.031 0-.469-.078-.817-.235-1.047-.156-.238-.39-.36-.703-.36-.324 0-.57.122-.734.36-.156.23-.235.574-.235 1.031 0 .469.079.82.235 1.047.164.23.41.344.734.344ZM237.688 369.165v-1.312c-.71-.008-1.32-.07-1.828-.188a9.14 9.14 0 0 1-1.437-.484v-2.5c.507.23 1.054.414 1.64.547.582.136 1.125.23 1.625.281v-2.016a9.963 9.963 0 0 1-1.812-.703 3.579 3.579 0 0 1-1.266-1.078c-.305-.437-.453-1.004-.453-1.703 0-.656.145-1.203.438-1.64.289-.438.703-.77 1.234-1 .531-.239 1.148-.383 1.86-.438v-1.125h1.5v1.11c.663.03 1.269.12 1.812.265.539.148 1.031.308 1.469.484l-.704 2.188a7.291 7.291 0 0 0-1.265-.422 10.222 10.222 0 0 0-1.313-.219v1.969c.758.23 1.407.476 1.938.734.539.262.953.59 1.234.985.281.398.422.918.422 1.562 0 .875-.293 1.621-.875 2.234-.574.618-1.48.993-2.719 1.125v1.344Zm1.5-3.703c.32-.039.555-.125.703-.25a.59.59 0 0 0 .235-.484.638.638 0 0 0-.094-.36.689.689 0 0 0-.281-.265 2.65 2.65 0 0 0-.563-.235Zm-1.5-4.719v-1.515a1.64 1.64 0 0 0-.5.125.72.72 0 0 0-.297.218.512.512 0 0 0-.109.329c0 .136.031.257.094.359a.975.975 0 0 0 .281.266c.133.074.313.148.531.218ZM250.675 368.212h-3.203v-6.344a48.876 48.876 0 0 1 .047-1.89 4.888 4.888 0 0 1-.734.75l-1.329 1.093-1.625-2 4-3.265h2.844ZM261.68 368.212h-8.469v-2.078l2.844-2.875a46.353 46.353 0 0 0 1.375-1.469c.332-.375.563-.691.688-.953a1.79 1.79 0 0 0 .203-.828c0-.344-.117-.586-.344-.734a1.311 1.311 0 0 0-.781-.235c-.367 0-.735.106-1.11.313-.375.21-.796.515-1.265.922l-1.735-2.016c.352-.313.723-.61 1.11-.89.394-.29.86-.524 1.39-.704.54-.187 1.196-.281 1.97-.281.788 0 1.476.14 2.062.422.582.273 1.03.652 1.343 1.14.32.48.485 1.024.485 1.625 0 .68-.125 1.282-.375 1.813-.242.531-.61 1.062-1.11 1.594a35.034 35.034 0 0 1-1.843 1.797l-.86.765v.078h4.422ZM266.264 365.821l.109.188a38.66 38.66 0 0 1-.375 1.406 42.584 42.584 0 0 1-.484 1.64c-.18.552-.36 1.024-.547 1.423h-2.22c.102-.5.208-1.028.313-1.578.102-.555.196-1.094.282-1.625.082-.532.148-1.016.203-1.454ZM274.857 368.212h-3.203v-6.344c0-.289.004-.609.016-.953.008-.344.02-.656.031-.937a4.888 4.888 0 0 1-.734.75l-1.328 1.093-1.625-2 4-3.265h2.843ZM285.91 362.4c0 .937-.079 1.777-.235 2.515-.148.73-.387 1.356-.719 1.875a3.206 3.206 0 0 1-1.297 1.172c-.53.27-1.187.406-1.968.406-.97 0-1.766-.234-2.391-.703-.625-.476-1.086-1.16-1.375-2.047-.293-.894-.437-1.968-.437-3.218 0-1.258.128-2.336.39-3.235.27-.894.711-1.582 1.328-2.062.625-.477 1.453-.719 2.485-.719.976 0 1.773.242 2.39.719.614.48 1.07 1.168 1.375 2.062.301.899.453 1.977.453 3.235Zm-5.297 0c0 .761.023 1.402.078 1.921.062.512.172.899.328 1.157.156.25.379.375.672.375a.75.75 0 0 0 .672-.375c.156-.258.257-.645.312-1.157.063-.507.094-1.148.094-1.921 0-.77-.031-1.41-.094-1.922-.055-.52-.156-.91-.312-1.172-.157-.258-.383-.39-.672-.39-.293 0-.516.132-.672.39-.156.262-.266.652-.328 1.172a18.764 18.764 0 0 0-.078 1.922ZM295.79 365.962h-1.282v2.25H291.4v-2.25h-4.64v-2.312l4.843-7.094h2.906v7.047h1.282Zm-4.391-2.36v-1.812c.008-.187.02-.375.031-.562.008-.188.016-.344.016-.469.008-.133.02-.207.031-.219h-.094a3.887 3.887 0 0 1-.28.594c-.087.156-.196.34-.329.547l-1.297 1.922ZM763.765 441.328h-5.39v-15.531h-4.86v-4.406h15.094v4.406h-4.844ZM785.897 433.578c0 1.281-.18 2.422-.531 3.422-.356 1-.871 1.844-1.547 2.531-.668.68-1.48 1.195-2.438 1.547-.96.344-2.039.516-3.234.516-1.117 0-2.14-.172-3.078-.516a6.975 6.975 0 0 1-2.438-1.547c-.687-.687-1.218-1.531-1.593-2.531-.375-1-.563-2.14-.563-3.422 0-1.719.313-3.164.938-4.344a6.357 6.357 0 0 1 2.671-2.687c1.157-.625 2.54-.938 4.157-.938 1.476 0 2.789.313 3.937.938 1.156.617 2.063 1.511 2.719 2.687.664 1.18 1 2.625 1 4.344Zm-10.016 0c0 .875.078 1.617.235 2.219.156.605.406 1.062.75 1.375.343.312.789.469 1.343.469.551 0 .989-.157 1.313-.47.332-.312.57-.769.719-1.374.156-.602.234-1.344.234-2.219 0-.883-.078-1.625-.234-2.219-.149-.593-.387-1.035-.72-1.328-.335-.3-.78-.453-1.343-.453-.812 0-1.402.34-1.765 1.016-.356.668-.532 1.664-.532 2.984ZM796.495 437.39a5.73 5.73 0 0 0 1.313-.14c.406-.102.828-.234 1.265-.39v3.874c-.586.262-1.203.469-1.859.625-.648.157-1.469.235-2.469.235-1 0-1.887-.157-2.656-.47-.762-.312-1.356-.85-1.781-1.624-.418-.781-.625-1.863-.625-3.25v-6.375h-1.875v-2.172l2.375-1.672 1.375-3.25h3.5v3.094h3.781v4h-3.781v6.016c0 .5.125.875.375 1.125s.601.375 1.062.375ZM809.302 425.61c1.957 0 3.485.484 4.579 1.452 1.101.97 1.656 2.352 1.656 4.141v10.125h-3.688l-1.031-2.047h-.11a7.666 7.666 0 0 1-1.343 1.328c-.461.344-.984.594-1.578.75-.586.157-1.305.235-2.156.235-.899 0-1.7-.18-2.407-.532-.71-.363-1.265-.914-1.672-1.656-.406-.738-.609-1.672-.609-2.797 0-1.656.566-2.879 1.703-3.672 1.145-.8 2.805-1.254 4.985-1.359l2.578-.078v-.219c0-.687-.172-1.176-.516-1.469-.344-.289-.805-.437-1.375-.437-.605 0-1.281.11-2.031.328-.75.21-1.5.48-2.25.813L802.49 427c.894-.457 1.906-.8 3.031-1.031 1.125-.239 2.383-.36 3.781-.36Zm.938 8.812-1.234.062c-.98.032-1.668.203-2.063.516-.398.305-.594.734-.594 1.297 0 .531.14.922.422 1.172.281.25.656.375 1.125.375.645 0 1.195-.203 1.656-.61.457-.414.688-.953.688-1.61ZM824.49 441.328h-5.328v-21.219h5.328ZM847.982 441.328l-.985-3.734h-6.484l-1 3.734h-5.922l6.5-20.016h7.187l6.579 20.016Zm-2.11-8.156-.86-3.266-.405-1.515c-.168-.665-.336-1.348-.5-2.047a56.281 56.281 0 0 1-.391-1.75c-.086.46-.2 1.023-.344 1.687a77.425 77.425 0 0 1-.469 1.985 86.753 86.753 0 0 1-.406 1.64l-.86 3.266ZM865.357 425.61c1.594 0 2.895.452 3.906 1.359 1.008.898 1.516 2.336 1.516 4.312v10.047h-5.328v-8.422c0-1.031-.152-1.805-.453-2.328-.293-.52-.766-.781-1.422-.781-1.012 0-1.688.414-2.031 1.234-.344.824-.516 2-.516 3.531v6.766h-5.328v-15.453h4.015l.72 2.047h.218a5.05 5.05 0 0 1 1.156-1.25 5.013 5.013 0 0 1 1.578-.781 6.515 6.515 0 0 1 1.97-.282ZM884.056 425.61c1.594 0 2.895.452 3.906 1.359 1.008.898 1.516 2.336 1.516 4.312v10.047h-5.328v-8.422c0-1.031-.153-1.805-.453-2.328-.293-.52-.766-.781-1.422-.781-1.012 0-1.688.414-2.031 1.234-.344.824-.516 2-.516 3.531v6.766H874.4v-15.453h4.015l.72 2.047h.218a5.05 5.05 0 0 1 1.156-1.25 5.013 5.013 0 0 1 1.578-.781 6.515 6.515 0 0 1 1.969-.282ZM908.114 425.875v15.453H904.1l-.672-1.922h-.313a3.852 3.852 0 0 1-1.203 1.266 5.13 5.13 0 0 1-1.625.703 7.607 7.607 0 0 1-1.828.219c-1.012 0-1.922-.196-2.734-.578-.813-.395-1.461-1.008-1.938-1.844-.48-.832-.719-1.91-.719-3.235v-10.062h5.329v8.453c0 .992.14 1.75.421 2.281.29.524.766.782 1.422.782.676 0 1.196-.18 1.563-.547.363-.364.617-.899.765-1.61.145-.707.22-1.57.22-2.593v-6.766ZM919.329 425.61c1.957 0 3.484.484 4.578 1.452 1.102.97 1.656 2.352 1.656 4.141v10.125h-3.687l-1.032-2.047h-.109a7.666 7.666 0 0 1-1.344 1.328c-.46.344-.984.594-1.578.75-.586.157-1.304.235-2.156.235-.898 0-1.7-.18-2.406-.532-.711-.363-1.266-.914-1.672-1.656-.406-.738-.61-1.672-.61-2.797 0-1.656.567-2.879 1.704-3.672 1.144-.8 2.804-1.254 4.984-1.359l2.578-.078v-.219c0-.687-.172-1.176-.516-1.469-.343-.289-.804-.437-1.375-.437-.605 0-1.28.11-2.03.328-.75.21-1.5.48-2.25.813L912.515 427c.895-.457 1.907-.8 3.032-1.031 1.125-.239 2.382-.36 3.78-.36Zm.937 8.812-1.234.062c-.98.032-1.668.203-2.063.516-.398.305-.593.734-.593 1.297 0 .531.14.922.422 1.172.28.25.656.375 1.125.375.644 0 1.195-.203 1.656-.61.457-.414.687-.953.687-1.61ZM934.516 441.328h-5.328v-21.219h5.328ZM954.649 425.531c-.637 0-1.204.137-1.704.406-.5.262-.93.649-1.28 1.157-.356.511-.626 1.132-.813 1.859-.188.73-.282 1.559-.282 2.484 0 1.262.157 2.32.47 3.172.32.856.804 1.5 1.452 1.938.657.437 1.473.656 2.453.656.895 0 1.754-.125 2.579-.375.82-.25 1.648-.547 2.484-.89v4.562c-.887.387-1.793.664-2.719.828-.918.176-1.89.266-2.922.266-2.168 0-3.937-.426-5.312-1.282-1.375-.851-2.39-2.046-3.047-3.578-.648-1.531-.969-3.3-.969-5.312 0-1.508.207-2.89.625-4.14.426-1.259 1.047-2.349 1.86-3.266a8.21 8.21 0 0 1 3.03-2.141c1.208-.508 2.587-.766 4.141-.766.97 0 1.985.117 3.047.344 1.07.219 2.118.574 3.14 1.063l-1.655 4.234a16.767 16.767 0 0 0-2.22-.86 7.667 7.667 0 0 0-2.358-.359ZM978.324 433.578c0 1.281-.18 2.422-.531 3.422-.356 1-.871 1.844-1.547 2.531-.668.68-1.48 1.195-2.438 1.547-.96.344-2.039.516-3.234.516-1.117 0-2.14-.172-3.078-.516a6.975 6.975 0 0 1-2.438-1.547c-.687-.687-1.218-1.531-1.593-2.531-.375-1-.563-2.14-.563-3.422 0-1.719.313-3.164.938-4.344a6.357 6.357 0 0 1 2.671-2.687c1.157-.625 2.54-.938 4.157-.938 1.476 0 2.789.313 3.937.938 1.156.617 2.063 1.511 2.719 2.687.664 1.18 1 2.625 1 4.344Zm-10.016 0c0 .875.078 1.617.235 2.219.156.605.406 1.062.75 1.375.343.312.789.469 1.343.469.551 0 .989-.157 1.313-.47.332-.312.57-.769.719-1.374.156-.602.234-1.344.234-2.219 0-.883-.078-1.625-.234-2.219-.149-.593-.387-1.035-.72-1.328-.335-.3-.78-.453-1.343-.453-.812 0-1.402.34-1.765 1.016-.356.668-.532 1.664-.532 2.984ZM992.828 436.578c0 .992-.218 1.86-.656 2.61-.43.75-1.12 1.34-2.078 1.765-.96.426-2.219.64-3.781.64-1.106 0-2.094-.058-2.969-.171a11.244 11.244 0 0 1-2.625-.688v-4.265c.969.449 1.957.773 2.969.968 1.008.2 1.805.297 2.39.297.594 0 1.032-.066 1.313-.203.281-.133.422-.332.422-.594a.728.728 0 0 0-.281-.578c-.188-.156-.524-.336-1-.547a143.21 143.21 0 0 0-2.016-.843c-.856-.364-1.57-.754-2.14-1.172a4.047 4.047 0 0 1-1.266-1.485c-.282-.582-.422-1.3-.422-2.156 0-1.5.578-2.629 1.734-3.39 1.164-.77 2.711-1.157 4.64-1.157 1.009 0 1.962.117 2.86.344.906.219 1.844.543 2.813.969l-1.47 3.437a14.577 14.577 0 0 0-2.312-.843c-.78-.208-1.406-.313-1.875-.313-.418 0-.742.059-.968.172-.22.105-.328.262-.328.469 0 .199.078.37.234.515.156.149.457.313.906.5.446.188 1.098.453 1.953.797.895.367 1.633.758 2.22 1.172.593.418 1.03.922 1.312 1.516.28.586.421 1.328.421 2.234ZM1003.355 437.39a5.73 5.73 0 0 0 1.313-.14c.406-.102.828-.234 1.265-.39v3.874c-.586.262-1.203.469-1.859.625-.648.157-1.469.235-2.469.235-1 0-1.886-.157-2.656-.47-.762-.312-1.355-.85-1.781-1.624-.418-.781-.625-1.863-.625-3.25v-6.375h-1.875v-2.172l2.375-1.672 1.375-3.25h3.5v3.094h3.781v4h-3.781v6.016c0 .5.125.875.375 1.125s.601.375 1.062.375ZM1020.1 436.578c0 .992-.219 1.86-.656 2.61-.43.75-1.121 1.34-2.078 1.765-.961.426-2.22.64-3.782.64-1.105 0-2.093-.058-2.968-.171a11.244 11.244 0 0 1-2.625-.688v-4.265c.968.449 1.957.773 2.968.968 1.008.2 1.805.297 2.391.297.594 0 1.031-.066 1.312-.203.282-.133.422-.332.422-.594a.728.728 0 0 0-.28-.578c-.188-.156-.524-.336-1-.547a143.21 143.21 0 0 0-2.017-.843c-.855-.364-1.57-.754-2.14-1.172a4.047 4.047 0 0 1-1.266-1.485c-.281-.582-.422-1.3-.422-2.156 0-1.5.578-2.629 1.735-3.39 1.164-.77 2.71-1.157 4.64-1.157 1.008 0 1.961.117 2.86.344.906.219 1.843.543 2.812.969l-1.469 3.437a14.577 14.577 0 0 0-2.312-.843c-.781-.208-1.406-.313-1.875-.313-.418 0-.742.059-.969.172-.219.105-.328.262-.328.469 0 .199.078.37.234.515.157.149.457.313.907.5.445.188 1.097.453 1.953.797.894.367 1.633.758 2.219 1.172.593.418 1.03.922 1.312 1.516.281.586.422 1.328.422 2.234Zm0 0"></path></svg>