<svg width="1000" height="739" viewBox="0 0 1000 739" fill="none" xmlns="http://www.w3.org/2000/svg">
<g clip-path="url(#clip0_18_472)">
<path d="M530.47 166.488L494.03 113.212H549.992L586.411 166.488H530.47Z" fill="#0055FF"/>
<path d="M642.373 166.488H586.411L659.271 273.02L586.411 379.552H642.373L715.233 273.02L642.373 166.488Z" fill="#33CCFF"/>
<path d="M343.848 273.02L307.429 219.744H251.467L287.907 273.02L251.467 326.297H307.429L343.848 273.02Z" fill="#0055FF"/>
<path d="M510.267 315.885L546.707 262.609H490.766L454.326 315.885H510.267Z" fill="#0055FF"/>
<path d="M592.774 299.648C608.222 299.648 620.745 287.125 620.745 271.677C620.745 256.23 608.222 243.707 592.774 243.707C577.326 243.707 564.803 256.23 564.803 271.677C564.803 287.125 577.326 299.648 592.774 299.648Z" fill="#0055FF"/>
<path d="M472.67 166.488L436.23 113.212H380.288L416.708 166.488L343.848 273.02L416.708 379.552H472.67L399.81 273.02L472.67 166.488Z" fill="#33CCFF"/>
<path d="M111.882 488.79H172.079C186.56 488.79 197.674 492.364 204.636 498.582C211.969 505.172 215.357 513.249 215.357 523.785C215.357 537.522 206.887 546.364 194.286 550.681V551.239C209.139 555.577 219.303 567.992 219.303 584.539C219.303 597.14 215.357 605.796 207.445 612.572C199.74 619.347 187.882 623.293 173.587 623.293H111.882V488.77V488.79ZM168.691 542.976C180.549 542.976 188.626 537.336 188.626 526.801C188.626 516.823 181.292 510.997 169.249 510.997H139.151V542.976H168.691V542.976ZM139.151 600.735H170.571C183.751 600.735 191.642 593.401 191.642 582.494C191.642 569.707 182.243 563.117 169.827 563.117H139.171V600.755L139.151 600.735Z" fill="white"/>
<path d="M294.745 612.572H294.373C289.477 619.905 282.515 625.545 265.968 625.545C246.22 625.545 232.296 615.195 232.296 596.004C232.296 574.747 249.608 567.971 271.05 564.955C287.039 562.704 294.373 561.382 294.373 554.048C294.373 546.715 288.919 542.562 278.198 542.562C266.154 542.562 260.329 546.901 259.565 556.114H236.8C237.543 539.175 250.165 524.322 278.384 524.322C306.602 524.322 319.018 537.295 319.018 559.874V608.977C319.018 616.311 320.154 620.649 322.405 622.343V623.293H297.761C296.253 621.413 295.323 616.889 294.745 612.572V612.572ZM294.931 589.249V574.768C290.407 577.391 283.445 578.899 277.062 580.407C263.696 583.423 257.127 586.419 257.127 595.467C257.127 604.515 263.138 607.696 272.186 607.696C286.853 607.696 294.951 598.669 294.951 589.249H294.931Z" fill="white"/>
<path d="M334.242 575.14C334.242 546.364 353.062 524.157 382.416 524.157C407.433 524.157 422.864 538.638 426.252 559.523H401.235C399.541 551.053 392.952 544.649 383.552 544.649C368.121 544.649 360.23 556.507 360.23 575.119C360.23 593.732 367.563 605.589 383.18 605.589C393.53 605.589 400.864 600.136 402.557 589.228H427.202C425.508 609.742 409.519 626.103 383.738 626.103C353.268 626.103 334.263 603.896 334.263 575.119L334.242 575.14Z" fill="white"/>
<path d="M503.574 612.572H503.202C498.306 619.905 491.344 625.545 474.798 625.545C455.049 625.545 441.125 615.195 441.125 596.004C441.125 574.747 458.437 567.971 479.879 564.955C495.868 562.704 503.202 561.382 503.202 554.048C503.202 546.715 497.748 542.562 487.027 542.562C474.984 542.562 469.158 546.901 468.394 556.114H445.629C446.373 539.175 458.994 524.322 487.213 524.322C515.431 524.322 527.847 537.295 527.847 559.874V608.977C527.847 616.311 528.983 620.649 531.235 622.343V623.293H506.59C505.082 621.413 504.152 616.889 503.574 612.572V612.572ZM503.76 589.249V574.768C499.236 577.391 492.274 578.899 485.891 580.407C472.525 583.423 465.956 586.419 465.956 595.467C465.956 604.515 471.967 607.696 481.016 607.696C495.683 607.696 503.78 598.669 503.78 589.249H503.76Z" fill="white"/>
<path d="M548.153 488.79H573.748V623.314H548.153V488.79Z" fill="white"/>
<path d="M619.65 539.402H620.207C627.169 529.238 635.06 524.156 648.24 524.156C668.175 524.156 681.54 539.216 681.54 560.287V623.314H655.945V564.047C655.945 553.697 649.934 546.364 639.192 546.364C627.913 546.364 619.629 555.391 619.629 568.571V623.314H594.034V488.79H619.629V539.402H619.65Z" fill="white"/>
<path d="M758.862 612.572H758.49C753.594 619.905 746.633 625.545 730.086 625.545C710.337 625.545 696.414 615.195 696.414 596.004C696.414 574.747 713.725 567.971 735.168 564.955C751.157 562.704 758.49 561.382 758.49 554.048C758.49 546.715 753.037 542.562 742.315 542.562C730.272 542.562 724.446 546.901 723.682 556.114H700.917C701.661 539.175 714.283 524.322 742.501 524.322C770.72 524.322 783.135 537.295 783.135 559.874V608.977C783.135 616.311 784.271 620.649 786.523 622.343V623.293H761.878C760.37 621.413 759.441 616.889 758.862 612.572V612.572ZM759.048 589.249V574.768C754.524 577.391 747.562 578.899 741.179 580.407C727.814 583.423 721.244 586.419 721.244 595.467C721.244 604.515 727.256 607.696 736.304 607.696C750.971 607.696 759.069 598.669 759.069 589.249H759.048Z" fill="white"/>
<path d="M863.452 623.313V612.034H862.894C856.305 620.876 848.785 625.958 835.234 625.958C813.791 625.958 801.748 612.22 801.748 591.149V526.801H827.136V586.811C827.136 598.09 832.218 604.308 843.125 604.308C855.168 604.308 862.502 595.281 862.502 582.494V526.801H888.097V623.313H863.452V623.313Z" fill="white"/>
</g>
<defs>
<clipPath id="clip0_18_472">
<rect width="776.235" height="512.911" fill="white" transform="translate(111.882 113.212)"/>
</clipPath>
</defs>
</svg>
